<svg xmlns="http://www.w3.org/2000/svg" width="69.878" height="58.231" viewBox="0 0 69.878 58.231">
  <g id="Group_176837" data-name="Group 176837" transform="translate(-1220.37 -708.784)">
    <g id="camera" transform="translate(1220.37 708.784)">
      <g id="Group_172848" data-name="Group 172848">
        <g id="Group_172847" data-name="Group 172847">
          <circle id="Ellipse_184" data-name="Ellipse 184" cx="14.558" cy="14.558" r="14.558" transform="translate(20.381 17.469)" fill="#21be41"/>
          <path id="Path_763" data-name="Path 763" d="M64.055,51.4H54.821a4.343,4.343,0,0,1-3.089-1.28L46.409,44.8a7.233,7.233,0,0,0-5.148-2.132H28.617A7.233,7.233,0,0,0,23.469,44.8l-5.323,5.323a4.343,4.343,0,0,1-3.089,1.28H5.823A5.829,5.829,0,0,0,0,57.225v37.85A5.829,5.829,0,0,0,5.823,100.9H64.055a5.829,5.829,0,0,0,5.823-5.823V57.225A5.829,5.829,0,0,0,64.055,51.4ZM34.939,92.164A17.469,17.469,0,1,1,52.408,74.694,17.489,17.489,0,0,1,34.939,92.164Zm23.293-26.2a2.912,2.912,0,1,1,2.912-2.912A2.915,2.915,0,0,1,58.232,65.96Z" transform="translate(0 -42.667)" fill="#21be41"/>
        </g>
      </g>
    </g>
    <g id="plus" transform="translate(1245.322 731.046)">
      <path id="Path_764" data-name="Path 764" d="M9.987,0a9.987,9.987,0,1,0,9.987,9.987A10,10,0,0,0,9.987,0Zm0,0"/>
      <path id="Path_765" data-name="Path 765" d="M132.239,128.7H128.7v3.537a.832.832,0,0,1-1.664,0V128.7H123.5a.832.832,0,1,1,0-1.664h3.537V123.5a.832.832,0,1,1,1.664,0v3.537h3.537a.832.832,0,0,1,0,1.664Zm0,0" transform="translate(-117.883 -117.883)" fill="#fafafa"/>
    </g>
  </g>
</svg>
