<svg xmlns="http://www.w3.org/2000/svg" width="416.179" height="331.941" viewBox="0 0 416.179 331.941">
  <g id="Group_176712" data-name="Group 176712" transform="translate(-220.496 -591.056)">
    <path id="Path_38697" data-name="Path 38697" d="M2886.855,1372.7c15.553-9.641,20.3,20.731,29.938,36.284s33.049,21.956,17.5,31.6-41.811-3-54.636-16.052C2861,1405.555,2871.3,1382.344,2886.855,1372.7Z" transform="translate(-2344.613 -690.156)" fill="#f8f0e3"/>
    <path id="Path_38698" data-name="Path 38698" d="M365.144,987.261c-19.27-22.678-7.131-35.724,20.763-42.406,28.86-6.913,13.947-80.742,32.809-66.7,23.833,17.739,20.563,63.024,13.142,85.335C421.014,996.087,398.039,1025.974,365.144,987.261Z" transform="translate(-119.719 -252.526)" fill="#f8f0e3"/>
    <g id="Group_176385" data-name="Group 176385" transform="translate(220.496 591.056)" opacity="0.1">
      <path id="Path_38699" data-name="Path 38699" d="M636.675,858.454a60.261,60.261,0,0,1-3.785,21.115,44.576,44.576,0,0,1-6.253,11.309,33.285,33.285,0,0,1-9.5,8.571A66.755,66.755,0,0,1,595.188,907a196.987,196.987,0,0,1-23.494,2.367q-5.145.3-10.316.475t-10.336.178c-4.473,0-8.944-.11-13.4-.362s-8.909-.651-13.334-1.227q-4.508-.585-8.99-1.324t-8.95-1.58c-3.8-.715-7.585-1.482-11.368-2.273s-7.565-1.606-11.346-2.422-7.561-1.631-11.346-2.424-7.576-1.556-11.37-2.273c-1.221-.23-2.446-.469-3.69-.71-3.522-.686-7.122-1.387-10.728-1.917a74.488,74.488,0,0,0-10.772-.888,43.287,43.287,0,0,0-7.217.568,32.126,32.126,0,0,0-6.9,1.948c-.938.386-1.858.817-2.766,1.269s-1.812.929-2.713,1.4c-1.105.583-2.213,1.166-3.338,1.709a34.992,34.992,0,0,1-3.447,1.466c-2.946,1.048-9.027,2.54-9.027,2.54s-8.547,2.15-12.779,3.369c-1.218.349-2.417.7-3.631,1.061-1.961.581-3.9,1.166-5.864,1.755s-3.912,1.179-5.862,1.756l-.394.116c-8.306,2.461-16.674,4.938-25.128,6.963a161.919,161.919,0,0,1-25.632,4.241q-2.883.215-5.779.211a96,96,0,0,1-19.691-2.165,136.207,136.207,0,0,1-19.058-5.571,122.918,122.918,0,0,1-20.364-9.566,80.166,80.166,0,0,1-17.537-13.838,56.644,56.644,0,0,1-11.51-19.547A105.462,105.462,0,0,1,221.9,849.8c-.6-4.7-1.028-9.448-1.241-14.21q-.16-3.506-.16-7.019a133.229,133.229,0,0,1,2.224-24.754,73.976,73.976,0,0,1,3.627-13.537,25.527,25.527,0,0,1,7.734-11.044,30,30,0,0,1,12.407-5.275,102.113,102.113,0,0,1,13.807-1.593l.167-.011.16-.011c2.9-.2,5.957-.326,9.077-.454,8.437-.349,17.373-.721,25.332-2.608s14.935-5.286,19.454-11.7a53.217,53.217,0,0,0,5.457-9.9,76.637,76.637,0,0,0,3.6-10.78c.9-3.472,1.624-7.026,2.257-10.622s1.181-7.234,1.725-10.872,1.089-7.269,1.722-10.861,1.354-7.142,2.253-10.607c.879-3.39,1.944-6.721,3.129-10.015s2.487-6.549,3.842-9.785c1.08-2.577,2.191-5.137,3.3-7.7s2.218-5.117,3.292-7.679c2.967-7.085,5.966-14.236,9.367-21.162q.593-1.208,1.2-2.406a123.465,123.465,0,0,1,10.561-17.4,67.378,67.378,0,0,1,4.333-5.293,61.725,61.725,0,0,1,4.558-4.539,50.555,50.555,0,0,1,10.857-7.51,84.863,84.863,0,0,1,20.9-7.175,109.661,109.661,0,0,1,22.358-2.226c3.526,0,7.046.154,10.533.449s6.938.732,10.327,1.3a75.064,75.064,0,0,1,29.336,12.189,94.819,94.819,0,0,1,23.13,22.262,90.762,90.762,0,0,1,8.19,13.036,40.926,40.926,0,0,1,4.4,14.482c.112,1.253.164,2.5.164,3.746a51.073,51.073,0,0,1-.684,8.115,84.144,84.144,0,0,1-2.461,10.427c-1.026,3.461-2.207,6.912-3.388,10.366-1.186,3.474-2.376,6.95-3.41,10.443a84.715,84.715,0,0,0-2.488,10.548,35.942,35.942,0,0,0-.449,5.711c0,8.043,2.557,16.428,7.386,22.584a72.206,72.206,0,0,0,10.3,10.513,141.946,141.946,0,0,0,11.933,8.906c2.542,1.727,5.12,3.414,7.688,5.093s5.1,3.336,7.6,5.032c.977.664,1.953,1.343,2.919,2.023,2.772,1.955,5.5,3.976,8.2,6.031s5.385,4.138,8.065,6.222,5.361,4.17,8.065,6.222,5.431,4.074,8.2,6.031,5.578,3.884,8.381,5.812c5.051,3.474,10.11,6.952,15.016,10.614a156.222,156.222,0,0,1,14.1,11.718,63.854,63.854,0,0,1,7.982,9.031,45.418,45.418,0,0,1,3.471,5.635,36.825,36.825,0,0,1,2.113,4.942A55.734,55.734,0,0,1,636.675,858.454Z" transform="translate(-220.496 -591.056)" fill="#21be41"/>
    </g>
    <rect id="Rectangle_162449" data-name="Rectangle 162449" width="53.135" height="22.697" transform="translate(256.474 802.388)" fill="#f4e5ce"/>
    <rect id="Rectangle_162450" data-name="Rectangle 162450" width="53.135" height="22.697" transform="translate(334.948 768.735)" fill="#f4e5ce"/>
    <rect id="Rectangle_162451" data-name="Rectangle 162451" width="53.135" height="22.697" transform="translate(492.211 786.058)" fill="#f4e5ce"/>
    <rect id="Rectangle_162452" data-name="Rectangle 162452" width="53.135" height="22.697" transform="translate(419.107 643.758)" fill="#f4e5ce"/>
    <path id="Path_38700" data-name="Path 38700" d="M1428.5,777.648v22.7h-32.455a123.446,123.446,0,0,1,10.561-17.4,67.346,67.346,0,0,1,4.333-5.293Z" transform="translate(-1040.42 -165.143)" fill="#f4e5ce"/>
    <path id="Path_38701" data-name="Path 38701" d="M637.907,2741.214c0,.518-.007,1.039-.02,1.557-.013.491-.031.981-.055,1.472a59.865,59.865,0,0,1-3.71,18.085,45.429,45.429,0,0,1-3.222,6.776q-.444.773-.929,1.527c-.657,1.032-1.357,2.038-2.1,3.007a33.279,33.279,0,0,1-9.5,8.571,54.487,54.487,0,0,1-8.025,3.8c-.471.182-.942.355-1.418.522a79.654,79.654,0,0,1-12.507,3.228,197.1,197.1,0,0,1-23.494,2.367q-5.145.3-10.316.475t-10.337.178c-4.473,0-8.944-.11-13.4-.362s-8.909-.651-13.334-1.227q-4.508-.585-8.99-1.324t-8.95-1.58c-3.8-.715-7.585-1.482-11.368-2.273s-7.565-1.606-11.346-2.422-7.561-1.631-11.346-2.424-7.576-1.556-11.37-2.274c-1.221-.23-2.446-.469-3.69-.71-3.522-.686-7.121-1.387-10.728-1.917a74.507,74.507,0,0,0-10.772-.888,43.261,43.261,0,0,0-7.217.569,32.1,32.1,0,0,0-6.9,1.947c-.938.386-1.858.817-2.766,1.269s-1.812.929-2.713,1.4c-1.105.583-2.213,1.166-3.338,1.709a35.133,35.133,0,0,1-3.447,1.466c-2.946,1.049-9.027,2.54-9.027,2.54s-8.547,2.15-12.779,3.37c-1.218.349-2.417.7-3.631,1.061-1.961.581-3.9,1.166-5.863,1.755s-3.912,1.179-5.862,1.756l-.394.116q-1.942.577-3.892,1.151-2.513.74-5.038,1.472c-5.367,1.55-10.765,3.038-16.2,4.34a161.883,161.883,0,0,1-25.632,4.241q-2.883.215-5.779.211a96,96,0,0,1-19.691-2.165,136.194,136.194,0,0,1-19.058-5.571q-1.39-.513-2.779-1.057-1.807-.709-3.607-1.472a115.582,115.582,0,0,1-13.978-7.037,80.164,80.164,0,0,1-17.537-13.839,45.874,45.874,0,0,1-3.349-4.013q-.544-.725-1.058-1.471a62.272,62.272,0,0,1-7.1-14.063,90.749,90.749,0,0,1-3.158-10.826c-.112-.491-.219-.98-.324-1.472-.73-3.413-1.293-6.84-1.725-10.209-.6-4.7-1.028-9.448-1.241-14.21H632.932a36.857,36.857,0,0,1,2.113,4.942A55.733,55.733,0,0,1,637.907,2741.214Z" transform="translate(-1.232 -1882.759)" fill="rgba(33,190,65,0.52)"/>
    <g id="Group_176389" data-name="Group 176389" transform="translate(244.196 696.922)">
      <path id="Path_38702" data-name="Path 38702" d="M684.85,1512.611s-5.779,4.334-4.128,17.6,11.392,25.819,12.218,28.3,3.963,12.218,1.651,20.143,1.486,17.667,5.779,19.483,9.907-4.788,8.916-14.695-.265-18.76,1.982-23.776c7.43-16.594-5.449-29.885-10.4-35.5S691.289,1509.639,684.85,1512.611Z" transform="translate(-651.255 -1512.02)" fill="#6dc6af"/>
      <path id="Path_38703" data-name="Path 38703" d="M938.994,1729.714s-2.642-5.118-10.567-1.981-16.593,19.318-18.533,32.031-5.738,12.218-7.224,20.473,4.046,13.539,7.224,13.209,12.919-6.109,11.764-20.144.661-18.162,7.1-22.62S942.3,1736.979,938.994,1729.714Z" transform="translate(-847.732 -1702.035)" fill="#89efd2"/>
      <path id="Path_38704" data-name="Path 38704" d="M431.782,1661.331c-5.064,2.665-8.916,9.411,1.321,21.959s9.246,9.907,10.567,18.492,1.816,13.869,7.6,18.823,10.732,4.788,13.044,10.4,8.09,1.321,7.6-1.486,4.128-9.906-7.76-27.408-9.84-16.511-10.864-22.95S444.331,1654.726,431.782,1661.331Z" transform="translate(-426.667 -1642.898)" fill="#89efd2"/>
      <g id="Group_176386" data-name="Group 176386" transform="translate(10.264 24.864)">
        <path id="Path_38705" data-name="Path 38705" d="M558.356,1828.5a1.032,1.032,0,0,1-1.031-.994c-1.081-29.579-38-93.041-40.969-97.3a1.028,1.028,0,0,1-.33-.458,1.041,1.041,0,0,1,1.352-1.358c.371.149.459.185,2.409,3.452,1.319,2.21,2.978,5.087,4.671,8.1,3.379,6.019,8.542,15.51,13.953,26.545,9.242,18.852,20.384,44.727,20.977,60.944a1.032,1.032,0,0,1-.994,1.069Zm-40.389-99.459v0Z" transform="translate(-515.953 -1728.316)" fill="#6dc6af"/>
      </g>
      <g id="Group_176387" data-name="Group 176387" transform="translate(54.855 30.609)">
        <path id="Path_38706" data-name="Path 38706" d="M904.9,1870.261a1,1,0,0,1-.1-.005,1.031,1.031,0,0,1-.928-1.126c3.851-39.788,10.55-62.225,15.492-74.041,5.435-12.993,9.994-16.452,10.185-16.593a1.032,1.032,0,0,1,1.228,1.658c-.061.047-4.445,3.479-9.67,16.117-4.831,11.684-11.386,33.842-15.181,73.057A1.032,1.032,0,0,1,904.9,1870.261Z" transform="translate(-903.865 -1778.295)" fill="#6dc6af"/>
      </g>
      <g id="Group_176388" data-name="Group 176388" transform="translate(41.729 15.006)">
        <path id="Path_38707" data-name="Path 38707" d="M801.955,1752.607a1.032,1.032,0,0,1-.951-.63c-.993-2.346-2.824-12.695-3.683-26.025-.735-11.42-.934-27.964,2.294-41.924A44.823,44.823,0,0,0,797,1654.805a36.86,36.86,0,0,0-6.994-10.463,1.032,1.032,0,0,1,1.418-1.5,38.1,38.1,0,0,1,7.41,11.011,46.849,46.849,0,0,1,2.793,30.64c-5.968,25.81-.353,62.822,1.278,66.679a1.032,1.032,0,0,1-.95,1.434Z" transform="translate(-789.683 -1642.561)" fill="#89efd2"/>
      </g>
    </g>
    <g id="Group_176390" data-name="Group 176390" transform="translate(223.623 860.012)">
      <path id="Path_38708" data-name="Path 38708" d="M382.092,2930.784v1.471H248.02c-.112-.491-.219-.98-.324-1.471Z" transform="translate(-247.696 -2930.784)" fill="#e5b5a3"/>
    </g>
    <g id="Group_176391" data-name="Group 176391" transform="translate(234.207 886.372)">
      <path id="Path_38709" data-name="Path 38709" d="M470.179,3160.1v1.471H340.834q-.544-.725-1.058-1.471Z" transform="translate(-339.776 -3160.096)" fill="#e5b5a3"/>
    </g>
    <g id="Group_176392" data-name="Group 176392" transform="translate(497.013 860.012)">
      <path id="Path_38710" data-name="Path 38710" d="M2765.642,2930.784c-.013.491-.031.98-.055,1.471H2626v-1.471Z" transform="translate(-2626 -2930.784)" fill="#e5b5a3"/>
    </g>
    <g id="Group_176393" data-name="Group 176393" transform="translate(483.511 886.344)">
      <path id="Path_38711" data-name="Path 38711" d="M2654.7,3159.856q-.444.772-.929,1.527H2508.544v-1.527Z" transform="translate(-2508.544 -3159.856)" fill="#e5b5a3"/>
    </g>
    <g id="Group_176394" data-name="Group 176394" transform="translate(317.153 835.19)">
      <rect id="Rectangle_162453" data-name="Rectangle 162453" width="1.471" height="31.483" transform="translate(0 0.805) rotate(-33.148)" fill="#e5b5a3"/>
    </g>
    <g id="Group_176395" data-name="Group 176395" transform="translate(278.764 811.423)">
      <path id="Path_38712" data-name="Path 38712" d="M770.5,2508.094v24.79a14.722,14.722,0,0,1-14.722,14.722H742.014a14.726,14.726,0,0,1-14.631-14.722v-24.79Z" transform="translate(-727.383 -2508.094)" fill="#d2dfff"/>
      <path id="Path_38713" data-name="Path 38713" d="M803.732,2547.606a15.772,15.772,0,0,1-7.606-13.5v-26.009h-7.6V2534.1a15.786,15.786,0,0,0,7.6,13.5Z" transform="translate(-781.498 -2508.094)" fill="#f8f0e3"/>
    </g>
    <g id="Group_176396" data-name="Group 176396" transform="translate(372.706 647.404)">
      <path id="Path_38714" data-name="Path 38714" d="M1569.323,1095.472c-.095-.028-6.586-14.293-6.794-14.224-8.176,2.7-13.641,6.26-17.909,12.646-.046.032.542,6.323.528,6.365a33.067,33.067,0,0,0,4.629,1.709C1556.938,1104.409,1563.625,1099.545,1569.323,1095.472Zm-6.722-14.112-.062.04-.033-.068Zm6.6,14.169-.024-.053.046-.031Z" transform="translate(-1544.617 -1081.247)" fill="#fbaf83"/>
    </g>
    <g id="Group_176397" data-name="Group 176397" transform="translate(384.151 698.321)">
      <path id="Path_38715" data-name="Path 38715" d="M1684.939,1530.268a.068.068,0,0,0-.044-.042l-22.047-6.036a.066.066,0,0,0-.079.04c-1.037,2.77-2.071,5.538-3.226,8.205q-.185.43-.375.855a52.033,52.033,0,0,1-3.561,6.757,50.736,50.736,0,0,1-5.128,6.634c-1.868,2.082-3.859,4.068-5.849,6.055a.065.065,0,0,0-.02.039l0,.024a38.548,38.548,0,0,0-.432,4.856,10.108,10.108,0,0,0,.488,3.346,9.063,9.063,0,0,0,1.988,3.114,32.115,32.115,0,0,0,2.878,2.628.058.058,0,0,0,.041.016l11.725.34a.058.058,0,0,0,.029-.008l11.879-5.455a.072.072,0,0,0,.039-.064c-.028-.76-.055-1.519-.055-2.327a29.515,29.515,0,0,1,.491-5.409,47.271,47.271,0,0,1,1.414-5.672,47.828,47.828,0,0,1,1.933-5.128c.169-.375.342-.75.522-1.122a52.344,52.344,0,0,1,3.425-5.93c1.258-1.914,2.608-3.785,3.956-5.656A.067.067,0,0,0,1684.939,1530.268Zm-40.2,22.547-.015.015.018-.038Zm4.835,13.811h.026l.016.015Zm13.318-42.35-.022.059-.057-.017Zm-1.622,42.7.017-.007h.013Zm11.839-5.394c0-.015,0-.028,0-.042l.042-.02Zm11.659-31.249.055-.077.037.1Z" transform="translate(-1644.176 -1524.188)" fill="#fbaf83"/>
    </g>
    <path id="Path_38716" data-name="Path 38716" d="M1800.354,1530.329c-1.348,1.87-2.7,3.741-3.956,5.656a52.307,52.307,0,0,0-3.425,5.93c-.18.372-.353.747-.522,1.122-10.967.848-15.771-4.467-17.859-9.746q.191-.425.375-.855c1.155-2.667,2.189-5.435,3.226-8.205a.066.066,0,0,1,.079-.04l22.047,6.036a.067.067,0,0,1,.044.042A.066.066,0,0,1,1800.354,1530.329Z" transform="translate(-1375.45 -825.866)" fill="#da8d5e"/>
    <g id="Group_176398" data-name="Group 176398" transform="translate(383.676 628.698)">
      <path id="Path_38717" data-name="Path 38717" d="M2207.673,1082.758l-.009-.006.031.066c0-.015,0-.029.005-.044Z" transform="translate(-2142.416 -1063.872)"/>
      <path id="Path_38718" data-name="Path 38718" d="M1712.584,948.863a14.909,14.909,0,0,1-1.014,5c-.439,1.24-1,2.569-1.626,3.945s-1.3,2.788-1.983,4.2c.083,5.72.16,11.5-9.463,12.713-.693.087-1.438.151-2.229.193s-1.628.063-2.509.063a147.636,147.636,0,0,1-19.391-1.766c-7.471-1.059-15.7-2.472-23.917-3.883a.073.073,0,0,1-.044-.029,129.529,129.529,0,0,1-6.724-11.076c-1.907-3.647-3.636-7.693-3.636-11.815q0-.6.05-1.2a18.2,18.2,0,0,1,1.988-6.592,21,21,0,0,1,3.688-5.185,12.576,12.576,0,0,1,3.931-2.735,12.859,12.859,0,0,1,3.6-.94,17.936,17.936,0,0,1,2.154-.129,30,30,0,0,1,3.509.254,15.5,15.5,0,0,1,1.744-5.656,9.569,9.569,0,0,1,2.351-2.669,12.545,12.545,0,0,1,4.089-2.06,22.018,22.018,0,0,1,3.314-.726,25.5,25.5,0,0,1,3.586-.261,19.51,19.51,0,0,1,2.43.143,11.877,11.877,0,0,1,2.132.454,7.3,7.3,0,0,1,3.458,2.321,17.126,17.126,0,0,1,1.988,3.219,12.983,12.983,0,0,1,3.89-2.851,9.154,9.154,0,0,1,2.051-.565,14.523,14.523,0,0,1,2.327-.175q.637,0,1.3.044a15.426,15.426,0,0,1,3.283.533,10.847,10.847,0,0,1,3.3,1.573,13.8,13.8,0,0,1,2.974,2.941,13.03,13.03,0,0,1,1.986,3.717,11.4,11.4,0,0,1,.519,3.548,30.74,30.74,0,0,1-.348,4l-.028-.016-.009-.006.031.066.006-.044a23.8,23.8,0,0,1,2.058,1.359,11.5,11.5,0,0,1,2.032,1.955,15.466,15.466,0,0,1,1.83,2.9,13.708,13.708,0,0,1,1.157,3.377A10,10,0,0,1,1712.584,948.863Z" transform="translate(-1640.048 -918.512)" fill="#0f2149"/>
    </g>
    <g id="Group_176399" data-name="Group 176399" transform="translate(394.999 645.972)">
      <path id="Path_38719" data-name="Path 38719" d="M1792.97,1091.635c0,8.332-2.187,19.216-6.316,26.809a31.117,31.117,0,0,1-8.06,9.645,28.766,28.766,0,0,1-9.027,4.826,22.164,22.164,0,0,1-6.765,1.1,20.457,20.457,0,0,1-4.177-.434,24.8,24.8,0,0,1-3.956-1.186,24.123,24.123,0,0,1-6.055-3.358,19.814,19.814,0,0,1-4.813-5.361,31.139,31.139,0,0,1-3.143-7.421,53.694,53.694,0,0,1-1.631-7.817,54.758,54.758,0,0,1-.484-7.429c0-1.711.064-3.329.129-4.946v0l0-.015a71.36,71.36,0,0,1,1.081-9.628,20.078,20.078,0,0,1,3.6-8.394,21.438,21.438,0,0,1,7.866-6.012,34.5,34.5,0,0,1,10.813-2.981,39.517,39.517,0,0,1,4.407-.243,41.514,41.514,0,0,1,8.348.848,35.714,35.714,0,0,1,4.776,1.328,27.4,27.4,0,0,1,4.2,1.891,16.543,16.543,0,0,1,6.555,6.319,22.92,22.92,0,0,1,2.6,10.32Q1792.971,1090.53,1792.97,1091.635Z" transform="translate(-1738.544 -1068.784)" fill="#fbaf83"/>
    </g>
    <g id="Group_176400" data-name="Group 176400" transform="translate(392.088 642.507)">
      <path id="Path_38720" data-name="Path 38720" d="M1865.183,1192.4l.028.016c.013.009.027.017.04.026.009-.026.021-.05.03-.075Zm-14.629.587.062-.04-.1-.028C1850.532,1192.942,1850.543,1192.966,1850.554,1192.988Zm-12.521.475c.046.031.09.062.136.092-.011-.053-.024-.107-.035-.16Zm-8.944,10.1c.044.006.086.011.131.018-.022-.039-.042-.077-.065-.116Z" transform="translate(-1815.769 -1174.697)"/>
      <path id="Path_38721" data-name="Path 38721" d="M1773,1064.9a17.253,17.253,0,0,1-1.374,4.451c-.673,1.541-.96,3.956-1.789,5.534a.066.066,0,0,1-.077.033.067.067,0,0,1-.048-.068c.16-2.765-.224-6.36-.224-8.551,0-.237,0-.465-.006-.688a12.784,12.784,0,0,0-.307-2.919,5.593,5.593,0,0,0-1.155-2.262,12.8,12.8,0,0,0-2.325-2.06c-.918-.664-1.948-1.321-2.987-1.977a13.854,13.854,0,0,1-2.047,3.949,4.755,4.755,0,0,1-1.619,1.219,6.758,6.758,0,0,1-2.259.552c-.305.026-.627.041-.958.041a11.566,11.566,0,0,1-2.435-.256,7.357,7.357,0,0,1-2.227-.842,6.2,6.2,0,0,1-1.878-1.847,19.068,19.068,0,0,1-1.275-2.271,15.3,15.3,0,0,1-5.12,2.52,6.762,6.762,0,0,1-1.208.107,8.765,8.765,0,0,1-1.922-.228,11.821,11.821,0,0,1-1.635-.5,10.688,10.688,0,0,1-1.519-.712c-.362-.206-.677-.412-.98-.62a11.325,11.325,0,0,1,.27,2.317c.007.2.011.414.011.642a8.7,8.7,0,0,1-.861,4.158,5.644,5.644,0,0,1-1.766,1.858,7.356,7.356,0,0,1-2.288,1.024,7.751,7.751,0,0,1-1.927.228,18.022,18.022,0,0,1-2.389-.206,9.067,9.067,0,0,1,1.525,5.2,13.035,13.035,0,0,1-.817,3.728,12.482,12.482,0,0,1-1.852,3.421,8.154,8.154,0,0,1-2.5,2.073,20.16,20.16,0,0,1-2.8,1.194.066.066,0,0,1-.085-.035c-.511-1.137-1.021-2.277-1.477-3.439a26.169,26.169,0,0,1-1.142-3.581,15.228,15.228,0,0,1-.427-3.52c0-1.563-4.46-4.063-3.807-6.193a45.117,45.117,0,0,1,1.951-6.468c1.074-2.373,3.312-10.041,3.312-10.041s10.877-7.754,10.892-7.756l22.159-3.445c2.391-.276,10.506,2.4,11.374,2.524,1.458.2,5.236,8.736,6.433,9.336a.068.068,0,0,1,.033.039l2.126,6.594C1772.472,1059.6,1773.381,1062.071,1773,1064.9Z" transform="translate(-1713.224 -1038.643)" fill="#0f2149"/>
    </g>
    <g id="Group_176403" data-name="Group 176403" transform="translate(285.345 656.01)">
      <path id="Path_38724" data-name="Path 38724" d="M993.755,1315.469a27.093,27.093,0,0,1-.2,3.353c-.743,5.957-3.647,10.552-7.675,14.414s-9.183,7-14.423,10.044c-.6.35-1.216.7-1.821,1.052s-1.227.71-1.815,1.052c-.92.533-1.824,1.063-2.737,1.6a149.126,149.126,0,0,1-16.36,8.69,60.79,60.79,0,0,1-19.069,4.935c-1.874.164-3.815.243-5.8.243-14.436,0-31.178-4.227-41.552-11.208a38.826,38.826,0,0,1-3.381-2.551,37.676,37.676,0,0,1-2.908-2.733,41.589,41.589,0,0,1-7.228-10.508c-.16-.324-.314-.649-.465-.973a87.259,87.259,0,0,1-3.612-9.349q-.152-.45-.3-.888c-.1-.3-.187-.559-.285-.85-.4-1.174-.774-2.283-1.14-3.338s-.715-2.062-1.054-3.029c-.87-2.5-1.641-4.7-2.3-6.77s-1.21-4-1.637-5.933c-.423-1.913-.728-3.835-.971-5.836s-.419-4.081-.589-6.312c-.064-.861-.131-1.771-.2-2.683-.07-.969-.145-2-.224-3.035a72.045,72.045,0,0,0-1.589-11.572,35.716,35.716,0,0,0-5.444-12.338c-.612-.875-1.282-1.744-2-2.6s-1.486-1.712-2.292-2.553a90.906,90.906,0,0,0-9.921-8.744c-.118-.092-.236-.182-.353-.272-3.439-2.652-6.969-5.137-10.215-7.41l-1.162-.813c-3.98-2.783-7.526-5.264-10.787-7.789a80.875,80.875,0,0,1-9.075-8.065l-.084-.088a90.475,90.475,0,0,1-8.341-10.292,108.508,108.508,0,0,1-6.461-10.382c-2.207-4.068-3.651-7.482-3.651-10.835a11.98,11.98,0,0,1,1.527-5.773,31.453,31.453,0,0,1,7.232-8.359,66.047,66.047,0,0,1,10.966-7.548,77.055,77.055,0,0,1,12.257-5.38,125.58,125.58,0,0,1,13.171-3.656c.219-.05.438-.1.657-.147,1.961-.438,3.951-.846,5.941-1.227,2.432-.465,4.861-.885,7.234-1.249q.739-.113,1.468-.219h0c2.24-.329,4.418-.605,6.489-.824,1.626-.171,3.186-.307,4.655-.4,2.111-.14,4.037-.2,5.829-.2a111.192,111.192,0,0,1,11.979.756.072.072,0,0,1,.053.035c.653,1.247,1.31,2.5,1.847,3.713a14.822,14.822,0,0,1,1.142,3.5,8.51,8.51,0,0,1,.114,1.394,15.645,15.645,0,0,1-.91,4.624l-.007.02a.064.064,0,0,1-.026.037h0c-1.7,1.157-3.4,2.316-5.144,3.445s-3.539,2.229-5.422,3.27c-.881.487-1.784.962-2.7,1.425q-1.567.792-3.193,1.547-1.675.781-3.4,1.538-1.421.623-2.867,1.238c-1.273.543-2.558,1.081-3.835,1.6-.861.353-1.718.7-2.564,1.032-1.363.537-2.7,1.043-3.969,1.5q-1.032.37-2,.692c-1.85.61-3.524,1.081-5.109,1.48s-3.081.726-4.576,1.056h0l-8.575,1.776c2.774,1.51,5.549,3.024,8.146,4.642.723.451,1.435.911,2.165,1.392.877.581,1.779,1.19,2.772,1.861.6.407,1.234.835,1.913,1.291s1.4.938,2.181,1.453c1.959,1.295,4.285,2.8,6.7,4.348s4.927,3.142,7.254,4.618l0,0,1.1.7c2.089,1.326,4.037,2.56,5.893,3.75s3.623,2.338,5.356,3.491c.291.193.578.382.864.576,1.727,1.153,3.408,2.275,5.014,3.178a15.754,15.754,0,0,0,4.552,1.859,8.036,8.036,0,0,0,1.516.145,9.318,9.318,0,0,0,2.86-.478,25.74,25.74,0,0,0,3.857-1.727.066.066,0,0,1,.085.022c1.324,1.927,2.647,3.855,4.057,5.749a32.259,32.259,0,0,0,2.523,3.073,14.675,14.675,0,0,0,2.336,2.006,11.292,11.292,0,0,0,6.3,1.99c.2,0,.406-.005.612-.018a11.861,11.861,0,0,0,3.787-.9,12.968,12.968,0,0,0,3.412-2.064,16.057,16.057,0,0,0,2.66-2.948c.785-1.087,1.493-2.249,2.205-3.417a.07.07,0,0,1,.033-.028,17.144,17.144,0,0,1,2.3-.723c.184-.042.379-.085.587-.127a36.126,36.126,0,0,1,3.658-.491c.892-.081,1.918-.155,3.031-.223.931-.059,1.922-.114,2.947-.167s2.078-.1,3.143-.158c1.085-.053,2.176-.107,3.243-.164s2.11-.114,3.1-.175c.195-.011.432-.027.622-.039,1.238-.079,2.4-.155,3.513-.155a13.2,13.2,0,0,1,9.347,3.4,29.781,29.781,0,0,1,2.326,2.207,80.019,80.019,0,0,1,6,7.274c2.038,2.728,4.079,5.652,6.024,8.448l.474.686.467.671.386.557c2.374,3.417,4.589,6.6,7.017,10.511s5.062,8.539,8.284,14.848C985.589,1284.45,993.755,1302.344,993.755,1315.469Z" transform="translate(-784.64 -1156.112)" fill="#21be41"/>
    </g>
    <path id="Path_38725" data-name="Path 38725" d="M1715.475,2245.8c1.354.642,19.146,2.455,38.044-13.557s5.734-38.032,25.575-46.228,43.536,4.69,43.536,4.69l9.17,25.732-51.547,36.97-41.712,2.732Z" transform="translate(-1323.128 -1409.2)" fill="#21be41"/>
    <path id="Path_38726" data-name="Path 38726" d="M1858.013,2406.556l-22.493-4.179v-4.962l21.656,4.251Z" transform="translate(-1429.374 -1598.714)" fill="#80a0d8"/>
    <path id="Path_38727" data-name="Path 38727" d="M1858.013,2357.92l-22.493-4.571,27.7-5.723-1.968,6.418Z" transform="translate(-1429.374 -1554.649)" fill="#d2dfff"/>
    <g id="Group_176404" data-name="Group 176404" transform="translate(485.132 859.716)">
      <path id="Path_38728" data-name="Path 38728" d="M2522.774,2928.285h0a.066.066,0,0,1-.13-.027h0a.066.066,0,1,1,.13.027Z" transform="translate(-2522.643 -2928.205)"/>
    </g>
    <g id="Group_176405" data-name="Group 176405" transform="translate(344.594 800.234)">
      <path id="Path_38729" data-name="Path 38729" d="M1486.77,2457.179c-.3-6.05-1.926-12.667-4.214-19.569s-5.238-14.085-8.184-21.265a.063.063,0,0,0-.042-.039l-18.8-5.544a.065.065,0,0,0-.068.02l-.068.078c-16.672,19.595-33.319,39.118-52,39.118-.342,0-.688-.007-1.032-.021a30.464,30.464,0,0,1-4.677-.564,56.62,56.62,0,0,1-14.846-5.637c-4.99-2.6-9.983-5.727-14.885-8.8-4.083-2.556-8.1-5.073-12-7.21a56.808,56.808,0,0,0-11.256-4.926q-1.316-.378-2.6-.631a28,28,0,0,0-5.431-.541c-13.235,0-23.325,9.845-29.292,20.388a56.471,56.471,0,0,0-7.307,27.638,49.238,49.238,0,0,0,.752,8.7,40.919,40.919,0,0,0,4.786,13.148,89.656,89.656,0,0,0,7.74,11.063,82.543,82.543,0,0,0,9.647,10.822,31.653,31.653,0,0,0,13.031,7.35q.921.245,1.883.434a42.068,42.068,0,0,0,8.118.718c8.483,0,18.162-1.909,27.622-3.995,3.268-.721,6.5-1.462,9.695-2.193,3.092-.708,6.139-1.4,9.115-2.062,3.3-.728,6.522-1.407,9.623-1.994s6.084-1.083,8.917-1.446c1.791-.23,3.522-.406,5.214-.555s3.342-.271,4.973-.392c1.551-.114,3.084-.228,4.617-.362s3.062-.289,4.605-.487c1.753-.225,3.522-.5,5.336-.872s1.162-4.1,3.086-4.672c5.4-1.613,3.649-13.019,14.431-17.348,6.051-2.429,33.568-15.137,33.568-26.312C1486.821,2458.55,1486.8,2457.867,1486.77,2457.179Zm-12.477-40.745-.033-.009-.011-.03Zm-18.733-5.565-.028.033-.042-.013Z" transform="translate(-1300.064 -2410.76)" fill="#616161"/>
    </g>
    <g id="Group_176406" data-name="Group 176406" transform="translate(450.509 812.987)">
      <path id="Path_38730" data-name="Path 38730" d="M2314.616,2528.213a14.784,14.784,0,0,0-5.4-4.613,17.886,17.886,0,0,0-7.217-1.874,20.462,20.462,0,0,0-2.915.07,32.382,32.382,0,0,0-9.74,2.823c-3.316,1.46-6.693,3.323-10.083,5.242s-6.807,3.9-10.381,6.218a127.833,127.833,0,0,0-11.35,8.286,159.87,159.87,0,0,0-12.489,11.39,118.122,118.122,0,0,0-11.09,12.827c-6.218,8.508-9.362,16.4-12.5,24.289a.065.065,0,0,0,.031.084,47.347,47.347,0,0,0,6.487,2.781,33.918,33.918,0,0,0,8.987,1.567c.644.031,1.313.052,2.01.057.16,0,.322,0,.484,0a79.007,79.007,0,0,0,32.161-7.239,75.471,75.471,0,0,0,15.135-9.926,156.316,156.316,0,0,0,12.564-11.8,143.919,143.919,0,0,0,10.04-11.208,43.564,43.564,0,0,0,6.408-10.555,23.634,23.634,0,0,0,1.736-8.688A16.754,16.754,0,0,0,2314.616,2528.213Zm-93.043,64.708-.033-.085.055.028Z" transform="translate(-2221.445 -2521.703)" fill="#616161"/>
    </g>
    <g id="Group_176407" data-name="Group 176407" transform="translate(452.594 818.826)">
      <path id="Path_38731" data-name="Path 38731" d="M2240.41,2622.288a.828.828,0,0,1-.782-1.1c2.611-7.5,13.172-17.958,31.391-31.1,13.5-9.734,26.408-17.4,26.537-17.48a.828.828,0,0,1,.844,1.424c-.512.3-51.219,30.507-57.208,47.7A.829.829,0,0,1,2240.41,2622.288Z" transform="translate(-2239.582 -2572.494)" fill="#0f2149"/>
    </g>
    <g id="Group_176408" data-name="Group 176408" transform="translate(415.092 795.981)">
      <path id="Path_38732" data-name="Path 38732" d="M1967.394,2385.211c-.191-.061-.39-.118-.594-.173-4.964-1.342-14.074-1.561-23.978-1.561-2.38,0-4.806.013-7.23.025a.049.049,0,0,0-.017,0,30.243,30.243,0,0,1-5.734,1.172,2.172,2.172,0,0,1-.555-.059c-.245-.066-.37-.184-.37-.379a.589.589,0,0,1,.024-.162c.007-.022.013-.044.022-.068a4.9,4.9,0,0,1,.841-1.247c.421-.5.956-1.081,1.517-1.69.666-.719,1.368-1.477,1.953-2.192a7.371,7.371,0,0,0,1.249-1.95c.024-.07.044-.136.061-.2a1.479,1.479,0,0,0,.044-.346c0-.759-.7-1.193-1.714-1.467a13.673,13.673,0,0,0-1.821-.329c-.677-.085-1.409-.151-2.157-.219-.406-.037-.822-.073-1.234-.114-.511-.051-1.022-.106-1.53-.163s-1-.111-1.488-.159c-.979-.1-1.937-.169-2.853-.169a9.224,9.224,0,0,0-3.949.727,7.273,7.273,0,0,0-3.184,3.108,11.116,11.116,0,0,0-1.335,4.845q-.016.325-.017.657a13.048,13.048,0,0,0,3.646,9.24,8.911,8.911,0,0,0,1.994,1.4,11.577,11.577,0,0,0,2.354.9,18.764,18.764,0,0,0,2.893.521c1.021.106,2.1.154,3.219.161l.322,0a77.326,77.326,0,0,0,13.557-1.385c.973-.182,1.926-.375,2.866-.566.923-.19,1.833-.375,2.748-.544a39.057,39.057,0,0,1,7.309-.771c.158,0,.318,0,.478,0a50.27,50.27,0,0,1,7.815.859c2.746.485,5.6,1.118,8.455,1.752a.066.066,0,0,0,.077-.046,16.022,16.022,0,0,0,.912-4.405C1971.988,2388.139,1970.967,2386.324,1967.394,2385.211Zm3.555,9.375.017-.057.061.013Z" transform="translate(-1913.344 -2373.76)" fill="#fbaf83"/>
    </g>
    <g id="Group_176409" data-name="Group 176409" transform="translate(414.26 794.806)">
      <path id="Path_38733" data-name="Path 38733" d="M1925.866,2387.616c-5.4,0-12.394-.869-15.145-3.124-3.986-3.267-4.587-10.084-4.61-10.373,0-.007,0-.014,0-.021a11.371,11.371,0,0,1,3.954-8.784c4.22-3.55,14.415-.694,14.847-.57a.828.828,0,1,1-.454,1.592c-2.708-.771-10.382-2.232-13.327.246a9.791,9.791,0,0,0-3.367,7.414c.028.3.638,6.454,4.009,9.216s15.924,3.324,19.675,2.269a.828.828,0,1,1,.448,1.594A25.709,25.709,0,0,1,1925.866,2387.616Z" transform="translate(-1906.103 -2363.541)" fill="#e39d2d"/>
    </g>
    <g id="Group_176410" data-name="Group 176410" transform="translate(456.42 774.458)">
      <path id="Path_38734" data-name="Path 38734" d="M2353.176,2211.814q-.248-.135-.518-.26a19.9,19.9,0,0,0-3.631-1.188c-1.387-.339-2.926-.638-4.55-.955-2.078-.4-4.3-.835-6.516-1.409a37.983,37.983,0,0,1-6.534-2.266c-.718-.335-1.42-.7-2.1-1.1a21.379,21.379,0,0,1-1.971-1.312,27.121,27.121,0,0,1-4.032-3.842c-1.236-1.41-2.384-2.911-3.5-4.372-1-1.312-1.981-2.592-2.978-3.747a20.427,20.427,0,0,0-3.086-2.992,8.221,8.221,0,0,0-5.021-1.843c-.175,0-.349.006-.528.019-.206.015-.415.037-.627.068-4.122.613-9.376,4.537-15.192,10.116s-12.194,12.807-18.565,20.026a.076.076,0,0,0-.015.059,26.1,26.1,0,0,1,1.036,6.066c0,.239-.009.476-.025.712a11.3,11.3,0,0,1-.693,3.018c-.355.971-.8,1.915-1.251,2.864a.063.063,0,0,0,0,.057.066.066,0,0,0,.044.037c1.513.386,3.027.772,4.6,1.2s3.206.9,4.957,1.447,3.621,1.186,5.595,1.9,4.054,1.5,6.222,2.358c.379.15.769.305,1.154.459.231.092.465.186.7.278.164.066.327.13.491.195,1.843.73,3.767,1.47,5.8,2.117.219.07.437.138.658.2a43.873,43.873,0,0,0,5.836,1.372q1.214.2,2.485.322h0c1.559.156,3.171.233,4.811.233,1.017,0,2.045-.029,3.079-.09.226-.011.454-.026.682-.042,1.207-.083,2.418-.206,3.629-.37s2.418-.364,3.614-.605a57.5,57.5,0,0,0,8.977-2.588,51.862,51.862,0,0,0,7.881-3.748,33.2,33.2,0,0,0,6.235-4.629,23.362,23.362,0,0,0,4.424-5.77,13.961,13.961,0,0,0,1.907-6.344A6.083,6.083,0,0,0,2353.176,2211.814Zm-79.25,5.029.015-.059c0,.011.006.022.008.033Zm-.93,12.689-.042-.092.077.021C2273.017,2229.483,2273.005,2229.508,2272.995,2229.531Z" transform="translate(-2272.868 -2186.528)" fill="#21be41"/>
    </g>
    <g id="Group_176411" data-name="Group 176411" transform="translate(471.062 886.953)">
      <path id="Path_38735" data-name="Path 38735" d="M2426.293,3173.616l-20.517-8.458a.063.063,0,0,0-.052,0,.073.073,0,0,0-.037.037l-5.442,13.555a.067.067,0,0,0,.033.086l14.71,6.626a.058.058,0,0,0,.036.006l9.456-1.466a.063.063,0,0,0,.055-.053l1.8-10.259A.072.072,0,0,0,2426.293,3173.616Zm-20.481-8.372-.026.063-.061-.026Zm-5.442,13.555-.035-.084.059.026Zm14.636,6.537.019,0,.019.009Zm9.4-1.411.007-.046.048-.007Zm1.786-10.206.01-.053.04.073Z" transform="translate(-2400.241 -3165.152)" fill="#fbaf83"/>
    </g>
    <g id="Group_176412" data-name="Group 176412" transform="translate(483.353 885.202)">
      <path id="Path_38736" data-name="Path 38736" d="M2557.845,3154.967c-1.269-3.392-5.168-5.047-10.771-5.047-.565,0-1.144.017-1.742.05a50.857,50.857,0,0,0-5.335.624c-1.86.3-3.768.688-5.656,1.1s-3.765.855-5.536,1.272c-1.587.375-3.09.73-4.457,1.028-2.959.646-5.269,1.025-7.256,1.269s-3.647.355-5.31.466a.065.065,0,0,0-.053.033.066.066,0,0,0,0,.062c1.361,2.746,2.707,5.466,2.707,7.9a5.659,5.659,0,0,1-.189,1.486c-.013.048-.026.1-.041.142a9.091,9.091,0,0,1-2.637,3.795,46.508,46.508,0,0,1-4.354,3.463l-.018.013a.065.065,0,0,0-.015.092,4.265,4.265,0,0,0,.874.953,16.929,16.929,0,0,0,2.5,1.583,44,44,0,0,0,5.337,2.474,38.2,38.2,0,0,0,7.714,2.1,40.125,40.125,0,0,0,17.982-1.381,25.848,25.848,0,0,0,7.342-3.769,23.588,23.588,0,0,0,5.485-5.755,26.042,26.042,0,0,0,1.863-3.239,23.16,23.16,0,0,0,1.332-3.4,15.486,15.486,0,0,0,.714-4.394A8.352,8.352,0,0,0,2557.845,3154.967Zm-46.052.894.055-.1.044.09Zm-4.5,16.854-.017.013.015-.092c.013.019.026.035.037.053C2507.316,3172.7,2507.3,3172.707,2507.292,3172.715Z" transform="translate(-2507.169 -3149.92)" fill="#0f2149"/>
    </g>
    <g id="Group_176413" data-name="Group 176413" transform="translate(407.34 895.095)">
      <path id="Path_38737" data-name="Path 38737" d="M1903.02,3241.989a3.6,3.6,0,0,1-.14,1.013,14.44,14.44,0,0,1-3.031,5.36,15.031,15.031,0,0,1-4.918,3.726c-.346.16-.7.3-1.054.436a21.652,21.652,0,0,1-2.652.769c-.9.206-1.813.375-2.726.544s-1.828.34-2.729.546a21.739,21.739,0,0,0-2.652.769c-1.067.4-2.126.844-3.18,1.322s-2.106.986-3.158,1.492a69.707,69.707,0,0,1-6.721,2.954,21.444,21.444,0,0,1-7.015,1.385h-.151a19.2,19.2,0,0,1-15.437-8.484,10.129,10.129,0,0,1-1-2.148,10.431,10.431,0,0,1-.554-3.266,6.489,6.489,0,0,1,1-3.66,17.793,17.793,0,0,1,6.717-5.665,30.017,30.017,0,0,1,8.56-2.783,24.31,24.31,0,0,1,4.107-.315c1.455,0,2.912.092,4.354.19.783.053,1.959.136,2.937.2l1.762.123c-.007,0,4.407.217,6.6.315l1.47.066c2.308.1,4.624.2,6.932.375s4.605.418,6.886.808l.342.059a22.264,22.264,0,0,1,2.259.459,7.082,7.082,0,0,1,2.089.905,2.074,2.074,0,0,1,.548.55,2.928,2.928,0,0,1,.355.727A3.887,3.887,0,0,1,1903.02,3241.989Z" transform="translate(-1845.904 -3235.984)" fill="#0f2149"/>
    </g>
    <g id="Group_176414" data-name="Group 176414" transform="translate(484.308 606.005)">
      <path id="Path_38738" data-name="Path 38738" d="M2688.8,1213.632l-.054.075.063-.013Z" transform="translate(-2668.83 -1157.015)" fill="#feba00"/>
      <path id="Path_38739" data-name="Path 38739" d="M2566.442,743.67a26.594,26.594,0,0,0-2.869-8.672,21.711,21.711,0,0,0-6.118-6.785,37.864,37.864,0,0,0-15.045-6.629,26.857,26.857,0,0,0-4.927-.48q-.8,0-1.587.057a26.62,26.62,0,0,0-10.607,3.353,91.928,91.928,0,0,0-9.79,6.379.065.065,0,0,0-.026.066l3.721,20.518a.064.064,0,0,0,.045.052.066.066,0,0,0,.064-.013,37.784,37.784,0,0,1,5.04-3.98,21.615,21.615,0,0,1,7.123-2.847,34.166,34.166,0,0,1,6.988-.714,28,28,0,0,1,5.082.434,15.5,15.5,0,0,1,3.316.977,7.513,7.513,0,0,1,2.426,1.6,5.41,5.41,0,0,1,1.458,3.849c0,2.678-1.535,5.818-4.265,8.437a18.441,18.441,0,0,1-1.933,1.615,34.551,34.551,0,0,1-10.693,4.743c-4.14,1.192-8.713,2.093-13.292,2.994a.069.069,0,0,0-.042.029.071.071,0,0,0-.009.052l.048.2c.467,2,.933,4.009,1.405,6.093s.949,4.245,1.437,6.561c.494,2.354,1,4.868,1.515,7.46s1.03,5.266,1.549,7.936a.064.064,0,0,0,.073.053l11.285-1.676a.067.067,0,0,0,.055-.075l-2.415-17.482-.063.013.053-.075.009.063c2-.416,4.006-.831,6.167-1.357,2.185-.53,4.53-1.173,7.2-2.04a44.675,44.675,0,0,0,8.411-3.53,18.646,18.646,0,0,0,6.93-6.428c2.148-3.577,2.95-8.359,2.95-13.075A45.739,45.739,0,0,0,2566.442,743.67ZM2515.576,731l.028-.066.007.041C2515.6,730.984,2515.587,730.992,2515.576,731Zm3.638,20.416.09-.079.02.116Zm1.363,17.342.052-.081.016.068Zm5.931,28.127.063-.009a.63.63,0,0,1,.013.063Zm11.283-1.677-.055.075-.01-.066Z" transform="translate(-2515.471 -721.104)" fill="#feba00"/>
    </g>
    <g id="Group_176415" data-name="Group 176415" transform="translate(493.549 691.384)">
      <path id="Path_38740" data-name="Path 38740" d="M2611.959,1472.665a7.945,7.945,0,0,1-1.028,4.179,5.388,5.388,0,0,1-1.429,1.488,10.17,10.17,0,0,1-1.815,1.03,9.665,9.665,0,0,1-3.894.955c-.055,0-.109,0-.164,0a7.522,7.522,0,0,1-.9-.079,8.891,8.891,0,0,1-3.347-1.251,7.316,7.316,0,0,1-2.472-2.476,8.5,8.5,0,0,1-1.043-4.232,10.357,10.357,0,0,1,.371-2.755,6.42,6.42,0,0,1,2-2.992,12.213,12.213,0,0,1,3.14-1.988,8.106,8.106,0,0,1,2.084-.647c.1-.017.261-.03.392-.039l.235-.015s.006,0,.007,0,.124.009.3.026.4.04.615.072c.132.02.257.042.358.066a8.8,8.8,0,0,1,2.032.806,9.559,9.559,0,0,1,2.766,2.238,6.817,6.817,0,0,1,1.558,3.13A14.137,14.137,0,0,1,2611.959,1472.665Z" transform="translate(-2595.868 -1463.84)" fill="#fbaf83"/>
    </g>
    <g id="Group_176416" data-name="Group 176416" transform="translate(460.99 687.167)">
      <path id="Path_38741" data-name="Path 38741" d="M2394.934,1609.859l-.038.066.047-.014Z" transform="translate(-2385.438 -1588.857)" fill="#3a6beb"/>
      <path id="Path_38742" data-name="Path 38742" d="M2334.523,1434.33a6.907,6.907,0,0,0-1.841-3.76,9.806,9.806,0,0,0-3.675-2.385c-.1-.038-.2-.075-.3-.109a19.133,19.133,0,0,0-6.262-.924,31.084,31.084,0,0,0-3.212.173,28.906,28.906,0,0,0-3.623.608c-1.058.248-2.006.528-2.952.809a.057.057,0,0,0-.041.064l1.369,8.048a.056.056,0,0,0,.026.039.051.051,0,0,0,.047,0c.563-.19,1.127-.382,1.816-.568a23.739,23.739,0,0,1,2.572-.525,25.854,25.854,0,0,1,3.768-.326,7.786,7.786,0,0,1,2.647.362,3.055,3.055,0,0,1,.324.146,2.242,2.242,0,0,1,.229.142,1.98,1.98,0,0,1,.83,1.691,3.544,3.544,0,0,1-.667,1.98,4.969,4.969,0,0,1-1.733,1.457,19.266,19.266,0,0,1-2.39,1.037c-.865.327-1.778.667-2.714,1.01s-1.9.694-2.855,1.043a.058.058,0,0,0-.036.063l2.295,12.687a.056.056,0,0,0,.023.036.052.052,0,0,0,.042.009l5.422-.993a.056.056,0,0,0,.036-.023.059.059,0,0,0,.008-.042l-1.552-7.876-.047.014.037-.065.01.051a42.672,42.672,0,0,0,4.8-1.718,13.35,13.35,0,0,0,4.17-2.8,12.6,12.6,0,0,0,3.5-8.25A7.763,7.763,0,0,0,2334.523,1434.33Zm-21.829-5.481h0l.039-.062.007.048Zm1.333,7.942.062-.022.011.065Zm1.9,7.661.036-.064.009.048Zm2.265,12.578.056-.011.009.056Zm5.421-.993-.045.067-.011-.056Z" transform="translate(-2312.62 -1427.152)" fill="#3a6beb"/>
    </g>
    <g id="Group_176417" data-name="Group 176417" transform="translate(468.203 720.597)">
      <path id="Path_38743" data-name="Path 38743" d="M2380.271,1720.075a.879.879,0,0,1-.029.228,2.259,2.259,0,0,1-.369.725,4.819,4.819,0,0,1-.548.6,4.265,4.265,0,0,1-.5.423,1.839,1.839,0,0,1-.591.285,1.7,1.7,0,0,1-.173.036,1.806,1.806,0,0,1-.245.017,3.371,3.371,0,0,1-1.555-.488,2.648,2.648,0,0,1-.447-.3,1.126,1.126,0,0,1-.331-.424,1.522,1.522,0,0,1-.111-.6,3,3,0,0,1,.32-1.306,3.125,3.125,0,0,1,.219-.331.065.065,0,0,1,.008-.009,5.69,5.69,0,0,1,.706-.525,3.564,3.564,0,0,1,1.165-.416,2.284,2.284,0,0,1,.309-.024c.053,0,.107,0,.16.008a1.631,1.631,0,0,1,.773.306,3.66,3.66,0,0,1,.624.568A2.034,2.034,0,0,1,2380.271,1720.075Z" transform="translate(-2375.369 -1717.972)" fill="#3a6beb"/>
    </g>
    <g id="Group_176418" data-name="Group 176418" transform="translate(530.772 677.091)">
      <path id="Path_38744" data-name="Path 38744" d="M3016.806,1555.08l-.046.077c.018-.006.039-.011.057-.018Z" transform="translate(-3005.601 -1530.298)" fill="#21be41"/>
      <path id="Path_38745" data-name="Path 38745" d="M2945.524,1347.966a8.124,8.124,0,0,0-2.172-4.436,11.589,11.589,0,0,0-4.337-2.814c-.114-.044-.231-.088-.348-.129a22.594,22.594,0,0,0-7.39-1.091,36.622,36.622,0,0,0-3.79.2,34.088,34.088,0,0,0-4.273.717c-1.251.292-2.369.624-3.485.955a.067.067,0,0,0-.048.075l1.615,9.5a.062.062,0,0,0,.031.046.058.058,0,0,0,.055.005c.666-.224,1.328-.451,2.141-.669a28.1,28.1,0,0,1,3.037-.62,30.444,30.444,0,0,1,4.445-.384,9.2,9.2,0,0,1,3.125.427,3.635,3.635,0,0,1,.38.173,2.726,2.726,0,0,1,.271.167,2.337,2.337,0,0,1,.979,2,4.18,4.18,0,0,1-.787,2.336,5.866,5.866,0,0,1-2.045,1.72,22.718,22.718,0,0,1-2.819,1.223c-1.023.386-2.1.787-3.2,1.192s-2.236.819-3.368,1.231a.067.067,0,0,0-.044.073l2.708,14.969a.069.069,0,0,0,.028.042.062.062,0,0,0,.05.011l6.4-1.172a.059.059,0,0,0,.042-.028.075.075,0,0,0,.011-.05l-1.832-9.3c-.019.007-.039.013-.057.018l.046-.077.011.059a49.632,49.632,0,0,0,5.665-2.025,15.714,15.714,0,0,0,4.92-3.3,14.87,14.87,0,0,0,4.135-9.732A8.938,8.938,0,0,0,2945.524,1347.966Zm-25.756-6.467h0l.048-.074.009.057Zm1.573,9.371.073-.026.013.077Zm2.242,9.04.042-.075.011.057C2923.617,1359.9,2923.6,1359.9,2923.582,1359.91Zm2.672,14.841.066-.013.011.066Zm6.4-1.172-.053.079-.013-.066Z" transform="translate(-2919.68 -1339.496)" fill="#21be41"/>
    </g>
    <g id="Group_176419" data-name="Group 176419" transform="translate(538.461 714.633)">
      <path id="Path_38746" data-name="Path 38746" d="M2991.623,1667.127a4.361,4.361,0,0,0-.738-.669,1.891,1.891,0,0,0-.91-.36c-.066-.006-.13-.009-.2-.009a2.32,2.32,0,0,0-.356.028,4.213,4.213,0,0,0-1.374.491,6.561,6.561,0,0,0-.833.62l-.011.011a4.309,4.309,0,0,0-.259.39,3.388,3.388,0,0,0-.329,1.012,3.289,3.289,0,0,0-.046.53,1.823,1.823,0,0,0,.129.71,1.357,1.357,0,0,0,.39.5,3.28,3.28,0,0,0,.53.351,3.963,3.963,0,0,0,1.832.574,1.954,1.954,0,0,0,.292-.02,1.617,1.617,0,0,0,.2-.04,2.208,2.208,0,0,0,.7-.337,5.047,5.047,0,0,0,.592-.5,5.7,5.7,0,0,0,.647-.714,2.629,2.629,0,0,0,.434-.855,1.035,1.035,0,0,0,.035-.269A2.41,2.41,0,0,0,2991.623,1667.127Zm-4.318.2,0,0s0,0,0,0l0,0s0,0,0,0h0Z" transform="translate(-2986.568 -1666.088)" fill="#21be41"/>
    </g>
    <g id="Group_176420" data-name="Group 176420" transform="translate(388.048 672.368)">
      <path id="Path_38747" data-name="Path 38747" d="M1692.22,1307.162a18.154,18.154,0,0,1-.3,3.327,9.179,9.179,0,0,1-.43,1.606,4.285,4.285,0,0,1-.844,1.411,6.274,6.274,0,0,1-4.482,1.76,6.354,6.354,0,0,1-.729-.04l-.027,0a7.945,7.945,0,0,1-3.209-1.183,9.292,9.292,0,0,1-2.531-2.336,6.773,6.773,0,0,1-.9-1.72,11.438,11.438,0,0,1-.489-1.887,12.024,12.024,0,0,1-.2-2.078,7.608,7.608,0,0,1,.255-2.031,7.161,7.161,0,0,1,1.764-2.963,10.432,10.432,0,0,1,2.823-2.08,4.581,4.581,0,0,1,2.01-.528,3.156,3.156,0,0,1,.322.017l.073.009a7.044,7.044,0,0,1,2.353.739,10.587,10.587,0,0,1,2.058,1.391,7.544,7.544,0,0,1,1.455,1.622c.121.19.324.585.325.585s0,0,0,.006.177.427.246.649a7.732,7.732,0,0,1,.189.754,12.631,12.631,0,0,1,.221,1.723Q1692.219,1306.534,1692.22,1307.162Z" transform="translate(-1678.08 -1298.416)" fill="#fbaf83"/>
    </g>
    <path id="Path_38748" data-name="Path 38748" d="M1815.183,887.557c-.072-.3-.143-.565-.215-.841h0c-.583-1.867-.977-3.642-2.224-4.747.966-2.75-2.845-4.473-4.918-2.759,1.617-.018,3.774.07,3.666,2.283-4.484.223-4.434,4.878.241,1.657a2.439,2.439,0,0,1,.53,1.144,17.963,17.963,0,0,1,.316,4.846Zm-5.224-4.212c-.463-.14.423-.594.552-.585.011-.011.254-.033.394-.068A2.145,2.145,0,0,1,1809.959,883.345Z" transform="translate(-1404.862 -254.425)" fill="#0f2149"/>
    <path id="Path_38749" data-name="Path 38749" d="M2165.675,987.91c.282-.115.537-.226.8-.338v0c1.759-.855,3.455-1.508,4.363-2.906,2.863.545,4-3.48,2-5.274.259,1.6.493,3.742-1.711,3.965-.888-4.4-5.484-3.658-1.6.485a2.441,2.441,0,0,1-1.052.694,17.96,17.96,0,0,1-4.745,1.035Zm3.387-5.793c.069-.479.65.33.66.458.013.009.071.246.126.379A2.143,2.143,0,0,1,2169.062,982.118Z" transform="translate(-1719.848 -343.694)" fill="#0f2149"/>
    <path id="Path_38750" data-name="Path 38750" d="M1660.163,1025.333a11.488,11.488,0,0,1-3.035-.662,1.558,1.558,0,0,1-.673-.444c2.482-2.65-.457-3.125-1.025-.31-1.41-.142-1.26-1.515-1.094-2.536-1.282,1.147-.555,3.722,1.276,3.373a6.428,6.428,0,0,0,2.79,1.859h0c.168.072.331.143.511.216Zm-3.919-1.672c.036-.085.073-.236.08-.242.007-.082.379-.6.422-.293A1.37,1.37,0,0,1,1656.245,1023.661Z" transform="translate(-1268.446 -380.858)" fill="#0f2149"/>
    <g id="Group_176421" data-name="Group 176421" transform="translate(391.261 677.343)">
      <path id="Path_38751" data-name="Path 38751" d="M1708.425,1349.447a.828.828,0,0,1-.721-1.232,4.605,4.605,0,0,1,2.78-2.359,4.369,4.369,0,0,1,1.852-.086,3.747,3.747,0,0,0-1.655-2.048,4.581,4.581,0,0,0-3.5-.03.828.828,0,0,1-.652-1.521,6.2,6.2,0,0,1,4.915.084c1.5.793,2.476,2.348,2.912,4.619a.828.828,0,0,1-1.226.873,3.536,3.536,0,0,0-1.5-.383,2.741,2.741,0,0,0-2.482,1.659A.828.828,0,0,1,1708.425,1349.447Z" transform="translate(-1706.033 -1341.688)" fill="#da8d5e"/>
    </g>
    <circle id="Ellipse_632" data-name="Ellipse 632" cx="2.63" cy="2.63" r="2.63" transform="translate(417.755 675.534)" fill="#0f2149"/>
    <circle id="Ellipse_633" data-name="Ellipse 633" cx="2.63" cy="2.63" r="2.63" transform="translate(437.023 678.163)" fill="#0f2149"/>
    <path id="Path_38752" data-name="Path 38752" d="M1913.072,1272.867s2.052-4.172,5.76-3.708l1.391,1.836s-5.661.68-6.356,2.9Z" transform="translate(-1498.011 -600.122)" fill="#0f2149"/>
    <path id="Path_38753" data-name="Path 38753" d="M2127.154,1291.532s-1.4-4.434-5.133-4.538l-1.652,1.6s5.492,1.53,5.844,3.828Z" transform="translate(-1681.479 -615.939)" fill="#0f2149"/>
    <g id="Group_176422" data-name="Group 176422" transform="translate(388.96 644.022)">
      <path id="Path_38754" data-name="Path 38754" d="M1686.712,1065.636a10.991,10.991,0,0,1-.62-2.7,12.686,12.686,0,0,1,.008-2.815,10.675,10.675,0,0,1,.7-2.791,6.291,6.291,0,0,1,.3-.668c.117-.216.218-.441.357-.646a9.455,9.455,0,0,1,.878-1.2l.517-.539.565-.488c.193-.156.405-.287.607-.43a5.224,5.224,0,0,1,.637-.377l.326-.174c.108-.058.224-.1.336-.148.226-.094.45-.192.679-.271l.7-.207a6.554,6.554,0,0,1,.7-.154,12.486,12.486,0,0,1,5.552.242q-.687.1-1.358.171l-1.328.209a17.97,17.97,0,0,0-2.538.638c-.413.119-.8.3-1.187.458-.191.088-.371.194-.558.284-.092.049-.188.089-.275.145l-.261.167a8.178,8.178,0,0,0-1,.716l-.456.406-.416.446a10.665,10.665,0,0,0-2.208,4.445A23.765,23.765,0,0,0,1686.712,1065.636Z" transform="translate(-1686.018 -1051.822)" fill="#1a3d70"/>
    </g>
    <g id="Group_176423" data-name="Group 176423" transform="translate(410.321 635.628)">
      <path id="Path_38755" data-name="Path 38755" d="M1871.84,983.129a8.257,8.257,0,0,1,1.307-1.476,11.4,11.4,0,0,1,1.576-1.2,10.865,10.865,0,0,1,3.729-1.495l.507-.081c.17-.021.342-.036.513-.053s.344-.015.516-.021a4.307,4.307,0,0,1,.517.007,7.629,7.629,0,0,1,2.985.749c.152.078.3.162.447.246l.218.128.208.145c.136.1.275.193.405.3s.252.22.374.333c.06.057.124.109.18.171l.167.186c.107.128.217.249.317.379a13.649,13.649,0,0,0-3.56-1,3.933,3.933,0,0,0-.438-.044c-.147-.008-.291-.024-.437-.03s-.292,0-.437-.005-.292.01-.437.013l-.218.008-.218.019c-.145.014-.291.019-.435.044l-.435.055-.433.077a19.757,19.757,0,0,0-3.447,1.025C1874.165,982.054,1873.03,982.575,1871.84,983.129Z" transform="translate(-1871.84 -978.801)" fill="#1a3d70"/>
    </g>
    <g id="Group_176424" data-name="Group 176424" transform="translate(445.137 649.845)">
      <path id="Path_38756" data-name="Path 38756" d="M2174.716,1102.478a8.26,8.26,0,0,1,1.916.466,11.433,11.433,0,0,1,1.8.834,10.859,10.859,0,0,1,3.064,2.6l.308.411c.1.141.192.285.286.428s.175.3.26.447a4.336,4.336,0,0,1,.236.46,7.417,7.417,0,0,1,.625,1.968,7.507,7.507,0,0,1,.107,1.021c0,.171,0,.341-.009.51l-.011.253-.03.252c-.025.167-.043.333-.074.5s-.077.326-.12.486c-.023.08-.038.16-.067.239l-.086.234c-.063.154-.119.308-.187.458a13.634,13.634,0,0,0-.781-3.614,4.007,4.007,0,0,0-.166-.408c-.062-.133-.115-.269-.178-.4s-.137-.258-.2-.389-.145-.253-.215-.38l-.109-.189-.118-.184c-.081-.122-.152-.248-.243-.364l-.252-.359-.271-.347a19.767,19.767,0,0,0-2.517-2.568C2176.752,1104.031,2175.761,1103.271,2174.716,1102.478Z" transform="translate(-2174.716 -1102.478)" fill="#1a3d70"/>
    </g>
    <g id="Group_176425" data-name="Group 176425" transform="translate(429.537 655.107)">
      <path id="Path_38757" data-name="Path 38757" d="M2039.265,1148.255a20.141,20.141,0,0,0,1.176,3.111,8.029,8.029,0,0,0,1.763,2.428l.274.24.294.216c.1.076.2.134.3.2a3.4,3.4,0,0,0,.318.186c.211.131.446.218.672.333l.357.136a2.813,2.813,0,0,0,.366.128,22.4,22.4,0,0,0,3.25.7,6.907,6.907,0,0,1-3.506.576,6.522,6.522,0,0,1-.92-.153,6.415,6.415,0,0,1-.9-.306,5.712,5.712,0,0,1-1.621-1.032,6.416,6.416,0,0,1-1.874-3.219,7.456,7.456,0,0,1-.214-1.791A5.9,5.9,0,0,1,2039.265,1148.255Z" transform="translate(-2039.006 -1148.255)" fill="#1a3d70"/>
    </g>
    <g id="Group_176426" data-name="Group 176426" transform="translate(400.812 664.758)">
      <path id="Path_38758" data-name="Path 38758" d="M1789.119,1232.213a20.108,20.108,0,0,0,2.9,1.628,8.027,8.027,0,0,0,2.911.728l.364.007.364-.024c.122,0,.242-.028.364-.04a3.428,3.428,0,0,0,.364-.062c.246-.035.482-.119.729-.176l.361-.126a2.85,2.85,0,0,0,.363-.137,22.439,22.439,0,0,0,2.939-1.552,6.908,6.908,0,0,1-2.316,2.695,5.762,5.762,0,0,1-1.688.818,5.721,5.721,0,0,1-1.906.251,6.415,6.415,0,0,1-3.5-1.262,7.46,7.46,0,0,1-1.314-1.235A5.879,5.879,0,0,1,1789.119,1232.213Z" transform="translate(-1789.119 -1232.213)" fill="#1a3d70"/>
    </g>
    <g id="Group_176427" data-name="Group 176427" transform="translate(415.532 652.733)">
      <path id="Path_38759" data-name="Path 38759" d="M1917.168,1134.068a20.114,20.114,0,0,0,3.311-.322,8.022,8.022,0,0,0,2.8-1.068l.3-.2.285-.227c.1-.072.183-.161.276-.241a3.449,3.449,0,0,0,.262-.259c.182-.169.327-.373.5-.561l.225-.31a2.873,2.873,0,0,0,.219-.32,22.349,22.349,0,0,0,1.524-2.954,6.905,6.905,0,0,1-.36,3.535,6.6,6.6,0,0,1-.387.848,6.425,6.425,0,0,1-.53.788,5.711,5.711,0,0,1-1.42,1.3,6.414,6.414,0,0,1-3.6.968,7.436,7.436,0,0,1-1.785-.262A5.876,5.876,0,0,1,1917.168,1134.068Z" transform="translate(-1917.168 -1127.605)" fill="#1a3d70"/>
    </g>
    <path id="Path_38760" data-name="Path 38760" d="M1637.953,1181.979s13.625-5.434,11.77-8.926-10.726,2.794-10.726,2.794l-5.076-.278Z" transform="translate(-1250.948 -514.16)" fill="#fbaf83"/>
    <path id="Path_38761" data-name="Path 38761" d="M1701.621,1157.059c0,3.428-3.623,6.914-6.254,6.914s-.166-5.7-3.708-8.608c-2.649-2.175,2.567-4.513,5.2-4.513S1701.621,1153.631,1701.621,1157.059Z" transform="translate(-1301.404 -495.446)" fill="#0f2149"/>
    <g id="Group_176445" data-name="Group 176445" transform="translate(312.29 656.611)">
      <path id="Path_38762" data-name="Path 38762" d="M1030.344,1452.309a9.671,9.671,0,0,1-2.929,1.176,11.612,11.612,0,0,1-3.159.3c-.268-.012-.538-.041-.807-.069-.27-.044-.539-.082-.807-.148a6.629,6.629,0,0,1-1.57-.567,4.5,4.5,0,0,1-1.337-1.05,2.953,2.953,0,0,1-.693-1.491,5.246,5.246,0,0,0,2.506,1.33,15.15,15.15,0,0,0,2.787.343c.958.048,1.936.048,2.933.06S1029.277,1452.214,1030.344,1452.309Z" transform="translate(-1019.04 -1417.229)" fill="#585353"/>
      <path id="Path_38763" data-name="Path 38763" d="M1039.488,1474.084c.876-.36,1.684-.667,2.471-1s1.538-.667,2.263-1.045a20,20,0,0,0,2.11-1.267c.7-.469,1.351-1.011,2.109-1.59a4.785,4.785,0,0,1-.443,1.346,6.055,6.055,0,0,1-.778,1.2,7.216,7.216,0,0,1-2.234,1.783,7.984,7.984,0,0,1-2.707.834,7.3,7.3,0,0,1-1.407.031A4.869,4.869,0,0,1,1039.488,1474.084Z" transform="translate(-1037.137 -1433.797)" fill="#585353"/>
      <path id="Path_38764" data-name="Path 38764" d="M1202.376,1206.535c-.861.353-1.718.7-2.564,1.032-1.363.537-2.7,1.043-3.969,1.5,2.1-9.569-8.019-21.6-12.707-26.557,1.961-.438,3.951-.846,5.941-1.227C1202.494,1194.25,1203.3,1202.5,1202.376,1206.535Z" transform="translate(-1164.273 -1178.988)" fill="#585353"/>
      <path id="Path_38765" data-name="Path 38765" d="M1328.422,1182.964c.333-4.147-1.378-11.26-11.405-21.62-2.071.219-4.249.495-6.489.824,4.854,5.446,12.431,15.466,11.3,23.881Z" transform="translate(-1277.021 -1161.344)" fill="#585353"/>
      <path id="Path_38766" data-name="Path 38766" d="M1659.236,1739.639a32.436,32.436,0,0,1-6.259,10.3c-3.178,3.191-8.608,3.695-15.385,1.973-5.165-1.311-10.747-9.393-13.112-13.165a25.7,25.7,0,0,0,3.857-1.727.066.066,0,0,1,.084.022c1.324,1.927,2.647,3.855,4.057,5.75a32.31,32.31,0,0,0,2.524,3.073,14.659,14.659,0,0,0,2.336,2.007,11.294,11.294,0,0,0,6.3,1.99c.2,0,.407-.005.613-.018a11.85,11.85,0,0,0,3.787-.9,12.961,12.961,0,0,0,3.412-2.064,16.055,16.055,0,0,0,2.659-2.948c.785-1.087,1.494-2.25,2.205-3.417a.068.068,0,0,1,.033-.028,17.076,17.076,0,0,1,2.3-.723C1658.833,1739.724,1659.028,1739.682,1659.236,1739.639Z" transform="translate(-1554.884 -1670.837)" fill="#585353"/>
      <path id="Path_38767" data-name="Path 38767" d="M1926.832,1924.32s12.038-8.619,23.073-7.151l2.384,3.491s-14.1,1.077-22.446,8.625Z" transform="translate(-1822.48 -1830.136)" fill="#585353"/>
      <path id="Path_38768" data-name="Path 38768" d="M1387.968,1912.548c1.093-.473,2.14-.995,3.162-1.553s2.014-1.148,2.97-1.784a33.927,33.927,0,0,0,5.3-4.3l.6-.607c.194-.207.38-.422.571-.631s.376-.424.558-.642.371-.43.542-.657c.718-.882,1.355-1.826,1.987-2.782a45.676,45.676,0,0,0,3.184-6.212,20.258,20.258,0,0,1-1.918,6.912c-.283.534-.539,1.088-.866,1.6-.158.26-.307.525-.477.778l-.516.753a22.617,22.617,0,0,1-2.36,2.787,23.117,23.117,0,0,1-5.879,4.251,22.035,22.035,0,0,1-3.342,1.365c-.572.181-1.153.336-1.739.46A12.384,12.384,0,0,1,1387.968,1912.548Z" transform="translate(-1345.559 -1809.227)" fill="#585353"/>
      <path id="Path_38769" data-name="Path 38769" d="M2179.392,1866.624a19.2,19.2,0,0,1,1.735,1.142c.562.406,1.106.835,1.639,1.279a37.814,37.814,0,0,1,3.038,2.844,42.05,42.05,0,0,1,5.138,6.565c.365.594.73,1.187,1.07,1.8.172.3.342.608.5.918s.327.615.481.928c.3.632.611,1.253.873,1.9.134.322.28.638.4.964l.37.977a31.242,31.242,0,0,1,1.826,8.1c-.974-2.589-1.98-5.106-3.159-7.538-.586-1.217-1.21-2.411-1.858-3.591-.339-.582-.653-1.177-1.01-1.748-.335-.583-.7-1.152-1.051-1.723a80.306,80.306,0,0,0-4.673-6.6q-1.252-1.6-2.581-3.149C2181.249,1868.65,2180.342,1867.629,2179.392,1866.624Z" transform="translate(-2046.008 -1785.551)" fill="#585353"/>
    </g>
    <g id="Group_176428" data-name="Group 176428" transform="translate(426.881 734.739)">
      <path id="Path_38770" data-name="Path 38770" d="M2135.357,1843.887l-1.015,2.375-26.531,62.078a.069.069,0,0,1-.064.042l-90.031,5.807-1.751-2.9a.067.067,0,0,1-.055-.031.069.069,0,0,1,0-.063l30.912-67.378a.064.064,0,0,1,.061-.039l86.727-2.79a.069.069,0,0,1,.054.031.06.06,0,0,1,.005.061Z" transform="translate(-2015.901 -1840.992)" fill="#80a0d8"/>
    </g>
    <path id="Path_38771" data-name="Path 38771" d="M2457.61,2385.317q-.331-.1-.658-.2c-2.038-.648-3.962-1.387-5.8-2.117-.164-.065-.327-.129-.491-.2,12.308-9.59-.057-27.585-.057-27.585s-10-10.62,5.622,1.973C2468.714,2367.258,2461.147,2380.436,2457.61,2385.317Z" transform="translate(-1970.958 -1557.662)" fill="#585353"/>
    <path id="Path_38772" data-name="Path 38772" d="M2581.5,2428.207q-1.551.091-3.079.09c-1.64,0-3.251-.077-4.811-.234,10.1-9.8-1.348-26.463-1.348-26.463s-10-10.62,5.623,1.973C2588.064,2411.777,2584.927,2422.043,2581.5,2428.207Z" transform="translate(-2078.636 -1598.714)" fill="#585353"/>
    <path id="Path_38773" data-name="Path 38773" d="M2373.87,1843.887l-1.015,2.375-85.1,1.539-2.36-4.019,86.727-2.79a.067.067,0,0,1,.053.031.059.059,0,0,1,.006.061Z" transform="translate(-1827.532 -1106.253)" fill="#a2bdf4"/>
    <g id="Group_176429" data-name="Group 176429" transform="translate(428.633 737.634)">
      <path id="Path_38774" data-name="Path 38774" d="M2148.9,1866.273l-25.854,67.255a.069.069,0,0,1-.064.042l-91.781,2.911a.067.067,0,0,1-.055-.031.07.07,0,0,1,0-.063l30.912-67.378a.064.064,0,0,1,.061-.039l86.726-2.79a.068.068,0,0,1,.053.031A.06.06,0,0,1,2148.9,1866.273Z" transform="translate(-2031.139 -1866.181)" fill="#d2dfff"/>
    </g>
    <path id="Path_38775" data-name="Path 38775" d="M2558.607,2057.14c0,4.169-8.343,11.918-15.1,10.329-4.4-1.034-3.957-7.864-2.058-12.514,1.576-3.859,7.473-8.307,11.99-8.307S2558.607,2052.971,2558.607,2057.14Z" transform="translate(-2052.945 -1288.269)" fill="none" stroke="#f8f0e3" stroke-miterlimit="10" stroke-width="24"/>
    <g id="Group_176430" data-name="Group 176430" transform="translate(358.019 811.331)">
      <path id="Path_38776" data-name="Path 38776" d="M1545.447,2582.3l-.018-.013c-10.71-8.639-20.375-17.717-30.132-25.578s-19.606-14.5-26.481-20.013-11.845-9.467-15.862-12.6-7.088-5.44-10.184-7.675a80.422,80.422,0,0,0-9.378-6.053,24.547,24.547,0,0,0-9.6-3.038c-.11-.008-.219-.013-.329-.018-.289-.015-.576-.022-.865-.022-6.091,0-12.218,3.165-16.831,7.576a32.506,32.506,0,0,0-5.987,7.792,23.651,23.651,0,0,0-2.8,7.979,14.567,14.567,0,0,0-.134,1.966c0,4.037,1.751,7.434,4.324,11.738a61.584,61.584,0,0,0,6.034,8.587,86.494,86.494,0,0,0,12.045,11.5,206.315,206.315,0,0,0,20.658,14.425,200.959,200.959,0,0,0,24.955,13.2,159.388,159.388,0,0,0,24.357,8.188c7.923,2.018,15.7,3.5,23.474,4.979a.067.067,0,0,0,.055-.015c1.674-1.431,3.351-2.862,4.874-4.414a24.13,24.13,0,0,0,3.956-5.13c2.122-3.813,3.007-8.565,3.89-13.3A.072.072,0,0,0,1545.447,2582.3Zm-12.783,22.812c.007-.007.016-.013.024-.021l.033.006Zm12.681-22.722-.015-.011c0-.013.005-.026.007-.039l.024.064Z" transform="translate(-1416.848 -2507.296)" fill="#616161"/>
    </g>
    <g id="Group_176431" data-name="Group 176431" transform="translate(361.515 847.555)">
      <path id="Path_38777" data-name="Path 38777" d="M1509.367,2871.1a.823.823,0,0,1-.381-.094c-.11-.057-11.148-5.812-23.743-13.72-16.954-10.646-28.507-19.915-34.338-27.549a24.274,24.274,0,0,1-3.592-6.208.828.828,0,1,1,1.555-.568,22.653,22.653,0,0,0,3.353,5.771c13.642,17.862,57.092,40.579,57.529,40.806a.828.828,0,0,1-.383,1.562Z" transform="translate(-1447.262 -2822.413)" fill="#0f2149"/>
    </g>
    <g id="Group_176432" data-name="Group 176432" transform="translate(357.712 852.265)">
      <path id="Path_38778" data-name="Path 38778" d="M1421.548,2867.678c-2.933,0-6.531-2.439-7.018-2.779a.828.828,0,0,1,.947-1.358h0c1.942,1.353,5.6,3.156,7.163,2.234a.828.828,0,0,1,.843,1.425A3.745,3.745,0,0,1,1421.548,2867.678Z" transform="translate(-1414.175 -2863.393)" fill="#0f2149"/>
    </g>
    <g id="Group_176433" data-name="Group 176433" transform="translate(393.245 814.105)">
      <path id="Path_38779" data-name="Path 38779" d="M1816.551,2605.294a.824.824,0,0,1-.568-.226c-.164-.154-16.562-15.631-36.048-32.178-25.739-21.857-45.141-35.644-56.109-39.87a.828.828,0,0,1,.6-1.545c11.3,4.354,30.339,17.865,56.591,40.157,19.519,16.575,35.945,32.077,36.109,32.232a.828.828,0,0,1-.569,1.429Z" transform="translate(-1723.294 -2531.42)" fill="#0f2149"/>
    </g>
    <path id="Path_38780" data-name="Path 38780" d="M1998.7,2431.821s3.71-3.553,8.3-1.876,8.558,5.385,11.209,5.915-9.755,3.267-9.755,3.267l-9.755-3.62Z" transform="translate(-1573.795 -1627.107)" fill="#fbaf83"/>
    <path id="Path_38781" data-name="Path 38781" d="M2695.3,2418.968s11.212-6.691,20.04-5.1l-2.648,5.955Z" transform="translate(-2190.317 -1613.058)" fill="#fe0000"/>
    <g id="Group_176434" data-name="Group 176434" transform="translate(497.6 892.721)">
      <path id="Path_38782" data-name="Path 38782" d="M2633.141,3231.4a.828.828,0,0,1-.78-.55c-.148-.414-3.561-10.2,1.519-15.279a.828.828,0,1,1,1.17,1.17c-4.338,4.338-1.162,13.461-1.13,13.553a.829.829,0,0,1-.78,1.105Z" transform="translate(-2631.103 -3215.328)" fill="#1a3d70"/>
    </g>
    <g id="Group_176435" data-name="Group 176435" transform="translate(507.42 891.441)">
      <path id="Path_38783" data-name="Path 38783" d="M2718.572,3220.267a.828.828,0,0,1-.779-.549c-.148-.414-3.561-10.2,1.518-15.28a.828.828,0,0,1,1.171,1.17c-4.338,4.338-1.163,13.462-1.13,13.553a.827.827,0,0,1-.78,1.105Z" transform="translate(-2716.534 -3204.196)" fill="#1a3d70"/>
    </g>
    <g id="Group_176436" data-name="Group 176436" transform="translate(422.246 897.96)">
      <path id="Path_38784" data-name="Path 38784" d="M1984.733,3274.4l-.068,0a.828.828,0,0,1-.758-.892c.5-6.114-7.831-11.01-7.915-11.059a.828.828,0,0,1,.828-1.433c.381.219,9.318,5.467,8.737,12.626A.828.828,0,0,1,1984.733,3274.4Z" transform="translate(-1975.578 -3260.9)" fill="#1a3d70"/>
    </g>
    <g id="Group_176437" data-name="Group 176437" transform="translate(270.129 912.732)">
      <path id="Path_38785" data-name="Path 38785" d="M750.053,3389.408q-2.513.739-5.038,1.471H655.879q-1.807-.709-3.607-1.471Z" transform="translate(-652.272 -3389.408)" fill="#e5b5a3"/>
    </g>
    <g id="Group_176438" data-name="Group 176438" transform="translate(257.082 860.346)">
      <rect id="Rectangle_162454" data-name="Rectangle 162454" width="1.471" height="31.483" transform="matrix(0.837, -0.547, 0.547, 0.837, 0, 0.805)" fill="#e5b5a3"/>
    </g>
    <g id="Group_176439" data-name="Group 176439" transform="translate(312.097 886.705)">
      <rect id="Rectangle_162455" data-name="Rectangle 162455" width="1.471" height="31.483" transform="matrix(0.837, -0.547, 0.547, 0.837, 0, 0.805)" fill="#e5b5a3"/>
    </g>
    <g id="Group_176440" data-name="Group 176440" transform="translate(542.262 860.191)">
      <rect id="Rectangle_162456" data-name="Rectangle 162456" width="1.471" height="31.483" transform="translate(0 0.805) rotate(-33.148)" fill="#e5b5a3"/>
    </g>
    <g id="Group_176441" data-name="Group 176441" transform="translate(594.788 835.593)">
      <path id="Path_38786" data-name="Path 38786" d="M3478.331,2718.352l15.948,24.419.209.32-1.23.806-.736-1.126-15.946-24.419Z" transform="translate(-3476.576 -2718.352)" fill="#e5b5a3"/>
    </g>
    <g id="Group_176442" data-name="Group 176442" transform="translate(596.538 885.883)">
      <path id="Path_38787" data-name="Path 38787" d="M3504.367,3173.208c-.471.182-.942.355-1.418.523l-10.385-15.9-.772-1.183.526-.344.706-.462.3.462,1,1.526Z" transform="translate(-3491.792 -3155.84)" fill="#e5b5a3"/>
    </g>
    <ellipse id="Ellipse_634" data-name="Ellipse 634" cx="11.791" cy="8.452" rx="11.791" ry="8.452" transform="translate(319.363 620.957)" fill="#f8f0e3"/>
    <ellipse id="Ellipse_635" data-name="Ellipse 635" cx="12.5" cy="10.761" rx="12.5" ry="10.761" transform="translate(577.824 763.697)" fill="#f8f0e3"/>
  </g>
</svg>
