<svg xmlns="http://www.w3.org/2000/svg" xmlns:xlink="http://www.w3.org/1999/xlink" width="88.396" height="76.69" viewBox="0 0 88.396 76.69">
  <defs>
    <linearGradient id="linear-gradient" x1="0.5" x2="0.5" y2="1" gradientUnits="objectBoundingBox">
      <stop offset="0" stop-color="#21be41"/>
      <stop offset="1" stop-color="#115f21"/>
    </linearGradient>
  </defs>
  <g id="Group_176504" data-name="Group 176504" transform="translate(-28.41 -55.476)">
    <g id="Group_176491" data-name="Group 176491" transform="translate(59.083 59.259)">
      <g id="Group_176490" data-name="Group 176490" transform="translate(0 0)">
        <ellipse id="Ellipse_642" data-name="Ellipse 642" cx="7.483" cy="7.532" rx="7.483" ry="7.532" transform="translate(18.52 1.475)" stroke="#fff" stroke-miterlimit="10" stroke-width="6" fill="url(#linear-gradient)"/>
        <path id="Path_38824" data-name="Path 38824" d="M222.289,75.588a3.2,3.2,0,0,0-4.528-2.262,3.286,3.286,0,0,0-1.714,3.632,13.085,13.085,0,0,1-5.106,13.026,3.922,3.922,0,0,1-2.32.761l-9.325.013A5.142,5.142,0,0,0,195.5,92.48a12.985,12.985,0,0,1-13.08,3.818,3.275,3.275,0,0,0-3.882,1.677,3.222,3.222,0,0,0,2.01,4.473,19.251,19.251,0,0,0,15.835-2.382.235.235,0,0,1,.365.2v39.07a3.528,3.528,0,0,0,2.931,3.535,3.451,3.451,0,0,0,3.952-3.427V120.479a.618.618,0,0,1,.4-.6.6.6,0,0,1,.8.573v18.988a3.453,3.453,0,0,0,3.441,3.464h0a3.453,3.453,0,0,0,3.441-3.464V97.747a1.123,1.123,0,0,1,.585-1A19.632,19.632,0,0,0,222.289,75.588Z" transform="translate(-178.232 -73.007)" stroke="#fff" stroke-miterlimit="10" stroke-width="6" fill="url(#linear-gradient)"/>
      </g>
      <ellipse id="Ellipse_643" data-name="Ellipse 643" cx="7.483" cy="7.532" rx="7.483" ry="7.532" transform="translate(18.52 1.475)" stroke="rgba(0,0,0,0)" stroke-width="1" fill="url(#linear-gradient)"/>
      <path id="Path_38825" data-name="Path 38825" d="M222.289,75.588a3.2,3.2,0,0,0-4.528-2.262,3.286,3.286,0,0,0-1.714,3.632,13.085,13.085,0,0,1-5.106,13.026,3.922,3.922,0,0,1-2.32.761l-9.325.013A5.142,5.142,0,0,0,195.5,92.48a12.985,12.985,0,0,1-13.08,3.818,3.275,3.275,0,0,0-3.882,1.677,3.222,3.222,0,0,0,2.01,4.473,19.251,19.251,0,0,0,15.835-2.382.235.235,0,0,1,.365.2v39.07a3.528,3.528,0,0,0,2.931,3.535,3.451,3.451,0,0,0,3.952-3.427V120.479a.618.618,0,0,1,.4-.6.6.6,0,0,1,.8.573v18.988a3.453,3.453,0,0,0,3.441,3.464h0a3.453,3.453,0,0,0,3.441-3.464V97.747a1.123,1.123,0,0,1,.585-1A19.632,19.632,0,0,0,222.289,75.588Z" transform="translate(-178.232 -73.007)" stroke="rgba(0,0,0,0)" stroke-width="1" fill="url(#linear-gradient)"/>
    </g>
    <g id="Group_176494" data-name="Group 176494" transform="translate(45.358 65.641)">
      <g id="Group_176492" data-name="Group 176492" transform="translate(0 0)">
        <ellipse id="Ellipse_644" data-name="Ellipse 644" cx="6.946" cy="6.992" rx="6.946" ry="6.992" transform="translate(8.636)" stroke="#fff" stroke-miterlimit="10" stroke-width="6" fill="url(#linear-gradient)"/>
        <path id="Path_38826" data-name="Path 38826" d="M136.632,142.047l-5.807-11.876-1.962-4.05a4.463,4.463,0,0,0-4.014-2.525h-4.017l-1.429-.03a7.738,7.738,0,0,1-5.712-2.64,11.374,11.374,0,0,1-2.654-9.043,2.852,2.852,0,0,0-2.078-3.214,2.763,2.763,0,0,0-3.37,2.289,16.971,16.971,0,0,0,7.663,16.836,1.427,1.427,0,0,1,.634,1.515l-5.061,22.664a2.124,2.124,0,0,0,1.934,2.978h2.918a.36.36,0,0,1,.359.361v13.147a3.281,3.281,0,0,0,2.982,3.319,3.2,3.2,0,0,0,3.407-3.209v-13.35a.268.268,0,0,1,.267-.269h.292a.268.268,0,0,1,.267.269v13.35a3.205,3.205,0,0,0,3.195,3.216h0a3.205,3.205,0,0,0,3.195-3.216V155.315a.36.36,0,0,1,.359-.361h2.918a2.124,2.124,0,0,0,1.934-2.978l-5.213-16.669.017-.01,4.379,8.956a2.533,2.533,0,0,0,3.4,1.167l.07-.034A2.5,2.5,0,0,0,136.632,142.047Z" transform="translate(-105.399 -108.271)" stroke="#fff" stroke-miterlimit="10" stroke-width="6" fill="url(#linear-gradient)"/>
      </g>
      <g id="Group_176493" data-name="Group 176493" transform="translate(0 0)">
        <ellipse id="Ellipse_645" data-name="Ellipse 645" cx="6.946" cy="6.992" rx="6.946" ry="6.992" transform="translate(8.636)" stroke="rgba(0,0,0,0)" stroke-width="1" fill="url(#linear-gradient)"/>
        <path id="Path_38827" data-name="Path 38827" d="M136.632,142.047l-5.807-11.876-1.962-4.05a4.463,4.463,0,0,0-4.014-2.525h-4.017l-1.429-.03a7.738,7.738,0,0,1-5.712-2.64,11.374,11.374,0,0,1-2.654-9.043,2.852,2.852,0,0,0-2.078-3.214,2.763,2.763,0,0,0-3.37,2.289,16.971,16.971,0,0,0,7.663,16.836,1.427,1.427,0,0,1,.634,1.515l-5.061,22.664a2.124,2.124,0,0,0,1.934,2.978h2.918a.36.36,0,0,1,.359.361v13.147a3.281,3.281,0,0,0,2.982,3.319,3.2,3.2,0,0,0,3.407-3.209v-13.35a.268.268,0,0,1,.267-.269h.292a.268.268,0,0,1,.267.269v13.35a3.205,3.205,0,0,0,3.195,3.216h0a3.205,3.205,0,0,0,3.195-3.216V155.315a.36.36,0,0,1,.359-.361h2.918a2.124,2.124,0,0,0,1.934-2.978l-5.213-16.669.017-.01,4.379,8.956a2.533,2.533,0,0,0,3.4,1.167l.07-.034A2.5,2.5,0,0,0,136.632,142.047Z" transform="translate(-105.399 -108.271)" stroke="rgba(0,0,0,0)" stroke-width="1" fill="url(#linear-gradient)"/>
      </g>
    </g>
    <g id="Group_176497" data-name="Group 176497" transform="translate(60.602 89.15)">
      <g id="Group_176495" data-name="Group 176495" transform="translate(0 0)">
        <path id="Path_38828" data-name="Path 38828" d="M225.49,245.846a4.862,4.862,0,1,0-4.053-5.536A4.835,4.835,0,0,0,225.49,245.846Z" transform="translate(-214.77 -235.319)" stroke="#fff" stroke-miterlimit="10" stroke-width="6" fill="url(#linear-gradient)"/>
        <path id="Path_38829" data-name="Path 38829" d="M208.132,234.623a1.942,1.942,0,0,0-2.208,1.639,7.921,7.921,0,1,1-15.66-2.386,1.94,1.94,0,1,0-3.836-.584A11.92,11.92,0,0,0,192.46,245.5l-3.084,14.3a1.327,1.327,0,0,0,1.256,1.735h1.924V269.3a2.3,2.3,0,0,0,2,2.322A2.228,2.228,0,0,0,197,269.4v-7.486a.374.374,0,0,1,.372-.375h.03a.374.374,0,0,1,.372.375V269.4a2.222,2.222,0,1,0,4.443,0v-7.861h1.9a1.327,1.327,0,0,0,1.256-1.735l-2.93-13.7a11.866,11.866,0,0,0,7.318-9.258A1.951,1.951,0,0,0,208.132,234.623Z" transform="translate(-186.293 -231.63)" stroke="#fff" stroke-miterlimit="10" stroke-width="6" fill="url(#linear-gradient)"/>
      </g>
      <g id="Group_176496" data-name="Group 176496" transform="translate(0 0)">
        <path id="Path_38830" data-name="Path 38830" d="M225.49,245.846a4.862,4.862,0,1,0-4.053-5.536A4.835,4.835,0,0,0,225.49,245.846Z" transform="translate(-214.77 -235.319)" stroke="rgba(0,0,0,0)" stroke-width="1" fill="url(#linear-gradient)"/>
        <path id="Path_38831" data-name="Path 38831" d="M208.132,234.623a1.942,1.942,0,0,0-2.208,1.639,7.921,7.921,0,1,1-15.66-2.386,1.94,1.94,0,1,0-3.836-.584A11.92,11.92,0,0,0,192.46,245.5l-3.084,14.3a1.327,1.327,0,0,0,1.256,1.735h1.924V269.3a2.3,2.3,0,0,0,2,2.322A2.228,2.228,0,0,0,197,269.4v-7.486a.374.374,0,0,1,.372-.375h.03a.374.374,0,0,1,.372.375V269.4a2.222,2.222,0,1,0,4.443,0v-7.861h1.9a1.327,1.327,0,0,0,1.256-1.735l-2.93-13.7a11.866,11.866,0,0,0,7.318-9.258A1.951,1.951,0,0,0,208.132,234.623Z" transform="translate(-186.293 -231.63)" stroke="rgba(0,0,0,0)" stroke-width="1" fill="url(#linear-gradient)"/>
      </g>
    </g>
    <g id="Group_176500" data-name="Group 176500" transform="translate(83.999 78.28)">
      <g id="Group_176498" data-name="Group 176498" transform="translate(0 0)">
        <ellipse id="Ellipse_646" data-name="Ellipse 646" cx="6.136" cy="6.176" rx="6.136" ry="6.176" transform="translate(8.389 1.162)" stroke="#fff" stroke-miterlimit="10" stroke-width="6" fill="url(#linear-gradient)"/>
        <path id="Path_38832" data-name="Path 38832" d="M338.2,178.189a2.466,2.466,0,0,0-2.841,2.031,10.061,10.061,0,1,1-19.835-3.381,2.464,2.464,0,1,0-4.859-.828,15.14,15.14,0,0,0,7.752,15.842,3.692,3.692,0,0,0-.082.769v29.359a2.831,2.831,0,0,0,2.822,2.841h0a2.831,2.831,0,0,0,2.822-2.841V210.945a.492.492,0,1,1,.984,0v11.036a2.83,2.83,0,0,0,3,2.835,2.977,2.977,0,0,0,2.647-2.947V192.684a15.066,15.066,0,0,0,9.611-11.636A2.479,2.479,0,0,0,338.2,178.189Z" transform="translate(-310.45 -173.944)" stroke="#fff" stroke-miterlimit="10" stroke-width="6" fill="url(#linear-gradient)"/>
      </g>
      <g id="Group_176499" data-name="Group 176499" transform="translate(0 0)">
        <ellipse id="Ellipse_647" data-name="Ellipse 647" cx="6.136" cy="6.176" rx="6.136" ry="6.176" transform="translate(8.389 1.162)" stroke="rgba(0,0,0,0)" stroke-width="1" fill="url(#linear-gradient)"/>
        <path id="Path_38833" data-name="Path 38833" d="M338.2,178.189a2.466,2.466,0,0,0-2.841,2.031,10.061,10.061,0,1,1-19.835-3.381,2.464,2.464,0,1,0-4.859-.828,15.14,15.14,0,0,0,7.752,15.842,3.692,3.692,0,0,0-.082.769v29.359a2.831,2.831,0,0,0,2.822,2.841h0a2.831,2.831,0,0,0,2.822-2.841V210.945a.492.492,0,1,1,.984,0v11.036a2.83,2.83,0,0,0,3,2.835,2.977,2.977,0,0,0,2.647-2.947V192.684a15.066,15.066,0,0,0,9.611-11.636A2.479,2.479,0,0,0,338.2,178.189Z" transform="translate(-310.45 -173.944)" stroke="rgba(0,0,0,0)" stroke-width="1" fill="url(#linear-gradient)"/>
      </g>
    </g>
    <g id="Group_176501" data-name="Group 176501" transform="translate(31.417 83.83)">
      <ellipse id="Ellipse_648" data-name="Ellipse 648" cx="5.466" cy="5.503" rx="5.466" ry="5.503" transform="translate(8.142 1.035)" stroke="#fff" stroke-miterlimit="10" stroke-width="6" fill="url(#linear-gradient)"/>
      <path id="Path_38834" data-name="Path 38834" d="M57.777,205.239a2.2,2.2,0,1,0-4.329.738,8.963,8.963,0,1,1-17.671,3.012,2.2,2.2,0,1,0-4.329.738,13.423,13.423,0,0,0,8.563,10.366v26a2.652,2.652,0,0,0,2.359,2.625,2.522,2.522,0,0,0,2.669-2.526v-9.832a.438.438,0,1,1,.876,0v9.832a2.523,2.523,0,0,0,2.514,2.531h0a2.523,2.523,0,0,0,2.514-2.531V220.038a3.283,3.283,0,0,0-.073-.685A13.489,13.489,0,0,0,57.777,205.239Z" transform="translate(-31.417 -203.397)" stroke="#fff" stroke-miterlimit="10" stroke-width="6" fill="url(#linear-gradient)"/>
    </g>
    <g id="Group_176502" data-name="Group 176502" transform="translate(31.417 83.83)">
      <ellipse id="Ellipse_649" data-name="Ellipse 649" cx="5.466" cy="5.503" rx="5.466" ry="5.503" transform="translate(8.142 1.035)" stroke="rgba(0,0,0,0)" stroke-width="1" fill="url(#linear-gradient)"/>
      <path id="Path_38835" data-name="Path 38835" d="M57.777,205.239a2.2,2.2,0,1,0-4.329.738,8.963,8.963,0,1,1-17.671,3.012,2.2,2.2,0,1,0-4.329.738,13.423,13.423,0,0,0,8.563,10.366v26a2.652,2.652,0,0,0,2.359,2.625,2.522,2.522,0,0,0,2.669-2.526v-9.832a.438.438,0,1,1,.876,0v9.832a2.523,2.523,0,0,0,2.514,2.531h0a2.523,2.523,0,0,0,2.514-2.531V220.038a3.283,3.283,0,0,0-.073-.685A13.489,13.489,0,0,0,57.777,205.239Z" transform="translate(-31.417 -203.397)" stroke="rgba(0,0,0,0)" stroke-width="1" fill="url(#linear-gradient)"/>
    </g>
    <g id="mII8ee" transform="translate(65.982 56.066)">
      <g id="Group_176503" data-name="Group 176503" transform="translate(0 0)">
        <path id="Path_38836" data-name="Path 38836" d="M220.5,57.664c-.022-.033-.044-.072-.072-.106a8.125,8.125,0,0,0-.525-.633,2.754,2.754,0,0,0-3.574-.362,3.329,3.329,0,0,0-1.467,2.54,4.287,4.287,0,0,0,.326,2.047,7.2,7.2,0,0,0,1.52,2.281,15.1,15.1,0,0,0,3.761,2.771.111.111,0,0,0,.09,0,16.412,16.412,0,0,0,3.1-2.135,8.543,8.543,0,0,0,1.882-2.3,4.55,4.55,0,0,0,.6-2.8,3.306,3.306,0,0,0-1.335-2.324,2.738,2.738,0,0,0-2.2-.527,2.861,2.861,0,0,0-1.622.938C220.816,57.246,220.666,57.456,220.5,57.664Z" transform="translate(-214.843 -56.066)" stroke="rgba(0,0,0,0)" stroke-width="1" fill="url(#linear-gradient)"/>
        <path id="Path_38837" data-name="Path 38837" d="M220.5,57.664c.166-.208.316-.418.488-.608a2.861,2.861,0,0,1,1.622-.938,2.738,2.738,0,0,1,2.2.527,3.306,3.306,0,0,1,1.335,2.324,4.55,4.55,0,0,1-.6,2.8,8.543,8.543,0,0,1-1.882,2.3,16.412,16.412,0,0,1-3.1,2.135.111.111,0,0,1-.09,0,15.1,15.1,0,0,1-3.761-2.771,7.2,7.2,0,0,1-1.52-2.281,4.287,4.287,0,0,1-.326-2.047,3.329,3.329,0,0,1,1.467-2.54,2.754,2.754,0,0,1,3.574.362,8.125,8.125,0,0,1,.525.633C220.456,57.592,220.478,57.631,220.5,57.664Z" transform="translate(-214.843 -56.066)" stroke="rgba(0,0,0,0)" stroke-width="1" fill="url(#linear-gradient)"/>
      </g>
    </g>
  </g>
</svg>
