<svg xmlns="http://www.w3.org/2000/svg" width="67.262" height="83.092" viewBox="0 0 67.262 83.092">
  <g id="Group_176489" data-name="Group 176489" transform="translate(-252.978 -290.454)">
    <g id="Group_176487" data-name="Group 176487" transform="translate(252.978 290.454)">
      <g id="Group_176485" data-name="Group 176485">
        <path id="Path_38802" data-name="Path 38802" d="M292.631,301.159l-4.7,4.428h9.125Z" transform="translate(-244.792 -287.947)" fill="#bec7ce"/>
        <path id="Path_38803" data-name="Path 38803" d="M264.2,323.792q.559-.583,1.151-1.174c5.794-5.8,10.8-8.947,14.7-10.645H269.3v-3.879h20.53l4.086-4.226,4.418-.2,4.428,4.428h7.989v3.879h-4.11l9.856,9.857V290.454H263.557v33.974c.216-.211.432-.428.649-.634Zm5.272-26.684h41.449v3.875H269.477Z" transform="translate(-250.501 -290.454)" fill="#e5e9eb"/>
        <path id="Path_38804" data-name="Path 38804" d="M306.646,307.89H289.528l-.452.425A24.427,24.427,0,0,1,287.2,315h23.64v3.879H285.264c-.618,1.072-1.328,2.193-2.154,3.366l-4.469-1.2,1.326,4.945h30.7v3.877H276.612c-.381.38-.76.748-1.135,1.112-.376.389-.757.779-1.151,1.175a55.79,55.79,0,0,1-10.768,8.612v11.279H316.5v-34.3ZM290.03,340.86H269.3v-3.879H290.03Z" transform="translate(-250.501 -286.371)" fill="#bec7ce"/>
        <rect id="Rectangle_162497" data-name="Rectangle 162497" width="41.449" height="3.876" transform="translate(18.977 6.653)" fill="#bec7ce"/>
        <path id="Path_38805" data-name="Path 38805" d="M268.214,308.626h10.754a20.417,20.417,0,0,1,7.89-1.929l1.886-1.95h-20.53Z" transform="translate(-249.41 -287.107)" fill="#bec7ce"/>
        <path id="Path_38806" data-name="Path 38806" d="M303.316,304.747h-7.989l3.879,3.879h4.11Z" transform="translate(-243.06 -287.107)" fill="#bec7ce"/>
        <path id="Path_38807" data-name="Path 38807" d="M288.714,304.747l-4.115,3.879h17.118l-3.879-3.879Z" transform="translate(-245.573 -287.107)" fill="#8f959b"/>
        <path id="Path_38808" data-name="Path 38808" d="M306.724,317.531v-3.879h-23.64a35.531,35.531,0,0,1-1.939,3.879Z" transform="translate(-246.382 -285.021)" fill="#8f959b"/>
        <path id="Path_38809" data-name="Path 38809" d="M274.174,326.4l-.039.038h34.057v-3.877h-30.7l.054.2Q276.031,324.53,274.174,326.4Z" transform="translate(-248.023 -282.936)" fill="#8f959b"/>
        <rect id="Rectangle_162498" data-name="Rectangle 162498" width="20.726" height="3.879" transform="translate(18.804 50.61)" fill="#8f959b"/>
        <path id="Path_38810" data-name="Path 38810" d="M277.949,330.9c.375-.364.754-.732,1.135-1.112l.039-.038q1.862-1.868,3.369-3.635l-.054-.2-1.326-4.945,4.469,1.2c.826-1.173,1.535-2.293,2.154-3.366a35.531,35.531,0,0,0,1.939-3.879,24.427,24.427,0,0,0,1.874-6.687L253,344.573s4.923.939,13.027-3.886a55.79,55.79,0,0,0,10.768-8.612C277.192,331.679,277.572,331.289,277.949,330.9Z" transform="translate(-252.972 -286.29)" fill="#146cb3"/>
        <path id="Path_38811" data-name="Path 38811" d="M282.536,308.256c-3.9,1.7-8.907,4.848-14.7,10.645q-.594.591-1.151,1.174h0c-.217.206-.433.423-.649.634-.177.173-.352.339-.527.515-.575.576-1.119,1.143-1.641,1.7l1.076,4.022-3.72-1c-9.186,11.266-8.215,19.068-8.215,19.068l37.418-38.693A20.417,20.417,0,0,0,282.536,308.256Z" transform="translate(-252.978 -286.737)" fill="#29a0ff"/>
        <path id="Path_38812" data-name="Path 38812" d="M292,309.466l4.115-3.879,4.7-4.428-4.419.2-4.087,4.226-1.885,1.95L253,346.23l38.547-36.339Z" transform="translate(-252.972 -287.947)"/>
      </g>
      <g id="Group_176486" data-name="Group 176486" transform="translate(43.99 46.142)">
        <path id="Path_38813" data-name="Path 38813" d="M291.727,338.065v16.287l3.448-3.446,3.445,3.446V338.065Z" transform="translate(-287.894 -325.446)" fill="#f4a800"/>
        <path id="Path_38814" data-name="Path 38814" d="M294.2,340l11.516,11.514v-4.874h4.873l-11.513-11.516Z" transform="translate(-287.315 -326.135)" fill="#ffc436"/>
        <path id="Path_38815" data-name="Path 38815" d="M295.9,327.841l1.889,1.83,2.608-.37.454,2.6,2.327,1.233-1.158,2.366,1.158,2.365-2.327,1.234-.454,2.593-2.608-.366-1.889,1.828-1.893-1.828-2.607.366-.457-2.593-2.325-1.234,1.157-2.365-1.157-2.366,2.325-1.233.457-2.6,2.607.37Z" transform="translate(-288.621 -327.841)" fill="#f54a4f"/>
      </g>
    </g>
    <g id="Group_176488" data-name="Group 176488" transform="translate(272.097 366.211)">
      <path id="Path_38816" data-name="Path 38816" d="M273.287,358.017a2.712,2.712,0,0,1,.276.819,3.964,3.964,0,0,1-.85.257,5.321,5.321,0,0,1-.938.078,3.665,3.665,0,0,1-1.387-.251,2.82,2.82,0,0,1-1.04-.721,3.209,3.209,0,0,1-.653-1.142,4.679,4.679,0,0,1-.226-1.509,4.859,4.859,0,0,1,.226-1.535,3.345,3.345,0,0,1,.653-1.171,2.88,2.88,0,0,1,1.035-.745,3.477,3.477,0,0,1,1.374-.26,5.2,5.2,0,0,1,.966.078,5.367,5.367,0,0,1,.721.189,1.851,1.851,0,0,1-.083.42c-.043.128-.1.264-.153.41-.1-.033-.2-.063-.288-.09s-.19-.049-.3-.068a2.974,2.974,0,0,0-.349-.044c-.128-.01-.275-.016-.439-.016a2.038,2.038,0,0,0-1.674.732,3.245,3.245,0,0,0-.6,2.1,3.943,3.943,0,0,0,.168,1.214,2.307,2.307,0,0,0,.475.849,1.931,1.931,0,0,0,.736.5,2.641,2.641,0,0,0,.961.168,3.744,3.744,0,0,0,.75-.069A3.208,3.208,0,0,0,273.287,358.017Z" transform="translate(-268.469 -351.836)"/>
      <path id="Path_38817" data-name="Path 38817" d="M275.573,358.785a2.472,2.472,0,0,1-1.038-.2,2.076,2.076,0,0,1-.741-.557,2.335,2.335,0,0,1-.439-.84,3.93,3.93,0,0,1,0-2.093,2.349,2.349,0,0,1,.439-.839,2.151,2.151,0,0,1,.741-.563,2.7,2.7,0,0,1,2.075,0,2.146,2.146,0,0,1,.739.563,2.311,2.311,0,0,1,.439.839,3.9,3.9,0,0,1,0,2.093,2.3,2.3,0,0,1-.439.84,2.071,2.071,0,0,1-.739.557A2.47,2.47,0,0,1,275.573,358.785Zm0-.779a1.123,1.123,0,0,0,1.006-.494,2.48,2.48,0,0,0,.326-1.372,2.453,2.453,0,0,0-.326-1.369,1.127,1.127,0,0,0-1.006-.488,1.115,1.115,0,0,0-1,.488,2.487,2.487,0,0,0-.32,1.369,2.515,2.515,0,0,0,.32,1.372A1.112,1.112,0,0,0,275.573,358.006Z" transform="translate(-267.358 -351.45)"/>
      <path id="Path_38818" data-name="Path 38818" d="M278.076,353.6a1.906,1.906,0,0,1,.212-.03c.07-.006.139-.011.212-.011s.139,0,.2.011a1.958,1.958,0,0,1,.2.03c.021.1.041.232.06.4a3.916,3.916,0,0,1,.028.42,1.935,1.935,0,0,1,.252-.336,1.894,1.894,0,0,1,.352-.3,1.8,1.8,0,0,1,.454-.217,1.766,1.766,0,0,1,.563-.085,1.569,1.569,0,0,1,1.282.5,2.259,2.259,0,0,1,.415,1.476v3.209a2.463,2.463,0,0,1-.246.028q-.139.011-.248.011c-.072,0-.153,0-.242-.011a2.4,2.4,0,0,1-.241-.028v-2.942a1.93,1.93,0,0,0-.217-1.033.77.77,0,0,0-.692-.331,1.417,1.417,0,0,0-.522.1,1.189,1.189,0,0,0-.434.306,1.513,1.513,0,0,0-.3.538,2.422,2.422,0,0,0-.114.8v2.567c-.073.012-.154.022-.243.028s-.169.011-.241.011-.154,0-.248-.011a2.451,2.451,0,0,1-.247-.028Z" transform="translate(-266.219 -351.45)"/>
      <path id="Path_38819" data-name="Path 38819" d="M283.005,354.6h-.77l-.038-.137,1.7-1.9h.08v1.254h1.284a1.735,1.735,0,0,1,.04.375c0,.072,0,.141-.01.207s-.017.131-.03.2h-1.284v2.312a5.154,5.154,0,0,0,.033.66,1,1,0,0,0,.12.381.406.406,0,0,0,.226.178,1.24,1.24,0,0,0,.36.043,1.84,1.84,0,0,0,.316-.023c.1-.017.188-.035.268-.056a1.535,1.535,0,0,1,.083.4c.011.138.016.26.016.367a3.293,3.293,0,0,1-.415.074,4.572,4.572,0,0,1-.465.025,1.645,1.645,0,0,1-1.11-.346,1.444,1.444,0,0,1-.4-1.147Z" transform="translate(-265.254 -351.665)"/>
      <path id="Path_38820" data-name="Path 38820" d="M285.564,353.588a1.946,1.946,0,0,1,.207-.03c.065-.006.136-.011.207-.011s.146,0,.217.011a1.259,1.259,0,0,1,.2.03c.02.1.041.23.059.39a3.231,3.231,0,0,1,.031.41,2.022,2.022,0,0,1,.547-.583,1.456,1.456,0,0,1,.875-.247c.052,0,.106,0,.162,0a1.324,1.324,0,0,1,.144.015,1.632,1.632,0,0,1,.028.188,1.851,1.851,0,0,1,.01.207,2.17,2.17,0,0,1-.015.247c-.009.085-.021.168-.035.246a.71.71,0,0,0-.163-.02h-.132a1.679,1.679,0,0,0-.508.075,1.061,1.061,0,0,0-.436.26,1.307,1.307,0,0,0-.306.513,2.617,2.617,0,0,0-.114.84v2.518c-.073.012-.153.022-.242.028s-.169.011-.241.011-.154,0-.242-.011-.173-.016-.253-.028Z" transform="translate(-264.466 -351.435)"/>
      <path id="Path_38821" data-name="Path 38821" d="M291.2,355.331a.962.962,0,0,0-.3-.81,1.4,1.4,0,0,0-.86-.227,3.58,3.58,0,0,0-.647.054,4.984,4.984,0,0,0-.587.143,1.546,1.546,0,0,1-.186-.78,4.613,4.613,0,0,1,.741-.169,5.537,5.537,0,0,1,.779-.059,2.212,2.212,0,0,1,1.5.45,1.812,1.812,0,0,1,.513,1.437v3.169c-.23.053-.511.106-.838.162a5.947,5.947,0,0,1-1.008.084,3.868,3.868,0,0,1-.874-.089,1.777,1.777,0,0,1-.661-.285,1.346,1.346,0,0,1-.42-.5,1.683,1.683,0,0,1-.148-.739,1.5,1.5,0,0,1,.643-1.279,2.027,2.027,0,0,1,.68-.316,3.052,3.052,0,0,1,.81-.1q.317,0,.518.015c.135.009.249.021.342.035Zm0,.958c-.1-.014-.225-.027-.376-.039s-.279-.021-.385-.021a1.616,1.616,0,0,0-.933.228.789.789,0,0,0-.321.69.854.854,0,0,0,.109.465.748.748,0,0,0,.273.255.9.9,0,0,0,.359.109,3.358,3.358,0,0,0,.375.021,4.405,4.405,0,0,0,.469-.026,2.914,2.914,0,0,0,.431-.073Z" transform="translate(-263.847 -351.45)"/>
      <path id="Path_38822" data-name="Path 38822" d="M296.029,357.789a1.5,1.5,0,0,1,.137.346,1.756,1.756,0,0,1,.07.425,3.646,3.646,0,0,1-1.333.226,2.427,2.427,0,0,1-1.906-.716,2.781,2.781,0,0,1-.643-1.929,3.341,3.341,0,0,1,.159-1.048,2.387,2.387,0,0,1,.469-.839,2.239,2.239,0,0,1,.775-.563,2.612,2.612,0,0,1,1.076-.207,4.891,4.891,0,0,1,.731.049,3.131,3.131,0,0,1,.6.158,2.017,2.017,0,0,1-.043.391,1.655,1.655,0,0,1-.122.389,3.4,3.4,0,0,0-1.107-.167,1.323,1.323,0,0,0-1.135.5,2.175,2.175,0,0,0-.376,1.333,1.94,1.94,0,0,0,.426,1.387,1.547,1.547,0,0,0,1.166.438,3.584,3.584,0,0,0,.547-.038A2.478,2.478,0,0,0,296.029,357.789Z" transform="translate(-262.875 -351.45)"/>
      <path id="Path_38823" data-name="Path 38823" d="M296.726,354.6h-.77l-.04-.137,1.7-1.9h.078v1.254h1.284a1.591,1.591,0,0,1,.04.375,1.888,1.888,0,0,1-.01.207c-.006.065-.017.131-.03.2h-1.284v2.312a4.677,4.677,0,0,0,.036.66.96.96,0,0,0,.117.381.409.409,0,0,0,.227.178,1.245,1.245,0,0,0,.36.043,1.855,1.855,0,0,0,.317-.023c.1-.017.186-.035.265-.056a1.588,1.588,0,0,1,.084.4q.015.207.015.367a3.292,3.292,0,0,1-.415.074,4.522,4.522,0,0,1-.463.025,1.65,1.65,0,0,1-1.112-.346,1.444,1.444,0,0,1-.4-1.147Z" transform="translate(-262.041 -351.665)"/>
    </g>
  </g>
</svg>
