<svg xmlns="http://www.w3.org/2000/svg" xmlns:xlink="http://www.w3.org/1999/xlink" width="349.403" height="348.639" viewBox="0 0 349.403 348.639">
  <defs>
    <linearGradient id="linear-gradient" x1="1.13" y1="1.295" x2="0.236" y2="0.19" gradientUnits="objectBoundingBox">
      <stop offset="0" stop-color="#21be41"/>
      <stop offset="1" stop-color="#00851b"/>
    </linearGradient>
    <linearGradient id="linear-gradient-2" x1="-1.32" y1="1.377" x2="-0.677" y2="0.442" gradientUnits="objectBoundingBox">
      <stop offset="0" stop-color="#21be41"/>
      <stop offset="1" stop-color="#05771d"/>
    </linearGradient>
    <linearGradient id="linear-gradient-3" y1="0.5" x2="1" y2="0.5" gradientUnits="objectBoundingBox">
      <stop offset="0" stop-color="#21be41"/>
      <stop offset="1" stop-color="#009b20"/>
    </linearGradient>
    <linearGradient id="linear-gradient-4" y1="0.5" x2="1" y2="0.5" gradientUnits="objectBoundingBox">
      <stop offset="0" stop-color="#21be41"/>
      <stop offset="0.523" stop-color="#10ae30"/>
      <stop offset="1" stop-color="#019f21"/>
    </linearGradient>
    <clipPath id="clip-path">
      <path id="Path_41716" data-name="Path 41716" d="M2316.625,914.228c-2.134-1.238-7.565-6.783-15.33-22.847-7.5-15.525-14.99-36.279-21.08-58.439s-10.26-43.825-11.743-61c-1.535-17.777.3-25.318,1.5-27.473,2.134,1.238,7.565,6.783,15.33,22.848,7.5,15.525,37.087,30.206,43.177,52.366s-11.837,49.9-10.354,67.077C2319.662,904.532,2317.827,912.074,2316.625,914.228Z" transform="translate(-2267.887 -744.465)" fill="none"/>
    </clipPath>
    <linearGradient id="linear-gradient-5" x1="-0.756" y1="1.776" x2="-3.146" y2="1.91" gradientUnits="objectBoundingBox">
      <stop offset="0" stop-color="#21be41"/>
      <stop offset="1" stop-color="#1a0f91"/>
    </linearGradient>
    <linearGradient id="linear-gradient-6" x1="-1.343" y1="1.142" x2="-1.415" y2="-0.354" gradientUnits="objectBoundingBox">
      <stop offset="0" stop-color="#21be41"/>
      <stop offset="1" stop-color="#027b1b"/>
    </linearGradient>
    <linearGradient id="linear-gradient-7" x1="2.125" y1="-4.821" x2="-12.942" y2="44.526" gradientUnits="objectBoundingBox">
      <stop offset="0" stop-color="#cb236d"/>
      <stop offset="1" stop-color="#4c246d"/>
    </linearGradient>
    <linearGradient id="linear-gradient-8" x1="1.01" y1="-1.182" x2="0.399" y2="0.558" gradientUnits="objectBoundingBox">
      <stop offset="0" stop-color="#febbba"/>
      <stop offset="1" stop-color="#ff928e"/>
    </linearGradient>
    <linearGradient id="linear-gradient-9" x1="1.314" y1="-0.073" x2="0.004" y2="0.944" xlink:href="#linear-gradient-8"/>
    <linearGradient id="linear-gradient-10" x1="0.7" y1="0.019" x2="-1.5" y2="3.348" xlink:href="#linear-gradient-8"/>
    <linearGradient id="linear-gradient-11" x1="0.181" y1="1.219" x2="0.572" y2="0.33" xlink:href="#linear-gradient-8"/>
    <linearGradient id="linear-gradient-12" x1="0.53" y1="0.549" x2="0.112" y2="1.263" xlink:href="#linear-gradient-8"/>
    <linearGradient id="linear-gradient-13" x1="0.821" y1="0.35" x2="-0.291" y2="1.106" xlink:href="#linear-gradient-8"/>
    <linearGradient id="linear-gradient-14" x1="1.641" y1="-1.928" x2="0.076" y2="1.27" gradientUnits="objectBoundingBox">
      <stop offset="0" stop-color="#e1473d"/>
      <stop offset="1" stop-color="#e9605a"/>
    </linearGradient>
    <linearGradient id="linear-gradient-15" x1="2.74" y1="-0.685" x2="-1.811" y2="1.784" xlink:href="#linear-gradient-8"/>
    <linearGradient id="linear-gradient-16" x1="0" y1="0.5" x2="1" y2="0.5" xlink:href="#linear-gradient-8"/>
    <linearGradient id="linear-gradient-17" x1="0.479" y1="0.158" x2="0.541" y2="1.532" gradientUnits="objectBoundingBox">
      <stop offset="0" stop-color="#4f52ff"/>
      <stop offset="1" stop-color="#4042e2"/>
    </linearGradient>
    <linearGradient id="linear-gradient-18" x1="0.035" y1="0.333" x2="1.461" y2="0.835" xlink:href="#linear-gradient-17"/>
    <linearGradient id="linear-gradient-19" x1="0.589" y1="0.833" x2="0.309" y2="-0.234" xlink:href="#linear-gradient-8"/>
    <linearGradient id="linear-gradient-20" y1="0.5" x2="1" y2="0.5" gradientUnits="objectBoundingBox">
      <stop offset="0" stop-color="#ff928e"/>
      <stop offset="1" stop-color="#fe7062"/>
    </linearGradient>
    <linearGradient id="linear-gradient-21" x1="-0.653" y1="0.098" x2="2.14" y2="1.033" xlink:href="#linear-gradient-17"/>
    <linearGradient id="linear-gradient-22" x1="0.958" y1="-2.704" x2="0.8" y2="-1.6" xlink:href="#linear-gradient-17"/>
    <linearGradient id="linear-gradient-23" x1="0.724" y1="0.148" x2="-0.021" y2="1.392" xlink:href="#linear-gradient-8"/>
    <linearGradient id="linear-gradient-24" x1="5.744" y1="11.202" x2="4.672" y2="12.484" xlink:href="#linear-gradient-8"/>
    <linearGradient id="linear-gradient-25" x1="3.58" y1="7.829" x2="4.487" y2="7.829" gradientUnits="objectBoundingBox">
      <stop offset="0" stop-color="#09005d"/>
      <stop offset="1" stop-color="#1a0f91"/>
    </linearGradient>
    <linearGradient id="linear-gradient-26" x1="9.902" y1="38.394" x2="12.359" y2="35.746" xlink:href="#linear-gradient-8"/>
    <linearGradient id="linear-gradient-32" x1="0.481" y1="1.429" x2="0.525" y2="-0.765" xlink:href="#linear-gradient-20"/>
    <linearGradient id="linear-gradient-37" x1="0.468" y1="1.102" x2="0.578" y2="-0.966" xlink:href="#linear-gradient-20"/>
  </defs>
  <g id="Group_176765" data-name="Group 176765" transform="translate(-453.485 -455)">
    <path id="Path_41707" data-name="Path 41707" d="M759.868,754.2a125.288,125.288,0,0,1-19.169,16.14c-62.534,44.868-136.527,31.789-152.253,28.6-23.222-4.716-68.11-13.833-100.562-52-49.1-57.739-41.453-148.7-3.369-208.753,6.966-10.984,43.764-71.946,118.554-81.723,45.263-5.917,98.024,6.017,136.232,38.028C819.5,561.683,813.794,697.427,759.868,754.2Z" transform="translate(0 0)" opacity="0.08" fill="url(#linear-gradient)"/>
    <g id="Group_176742" data-name="Group 176742" transform="translate(456.453 462.076)">
      <path id="Path_41708" data-name="Path 41708" d="M481.837,513.908c-.39-1.66,1.946-2.764,3.376-1.6,14.523,11.776,49.416,47.041,40.72,108.67-10.911,77.322,7.742,105.536,30.961,122.746,0,0-31.887-8.093-51.948-36.722C455.69,636.705,488.772,543.428,481.837,513.908Z" transform="translate(-477.321 -511.824)" fill="#21be41"/>
      <path id="Path_41709" data-name="Path 41709" d="M602.293,718.755c1.817,8.608,3.436,17.242,4.687,25.915q1.956,13,2.987,26.072c.645,8.712,1.1,17.433,1.126,26.158.071,8.724-.291,17.441-.691,26.192-.343,8.748-.746,17.559-.105,26.432a78.356,78.356,0,0,0,6.193,26.162c.925,2.087,1.9,4.167,3,6.178,1.062,2.029,2.228,4.018,3.435,5.988a94.507,94.507,0,0,0,8.238,11.332,103.916,103.916,0,0,0,21.691,18.983,2.171,2.171,0,0,0,2.746-.312,1.539,1.539,0,0,0-.316-2.34l-.006,0c-1.94-1.362-3.86-2.743-5.7-4.192-.934-.712-1.83-1.458-2.742-2.19-.879-.76-1.792-1.491-2.642-2.275a94.263,94.263,0,0,1-23.668-32.471,76.471,76.471,0,0,1-4.106-12.33,84.185,84.185,0,0,1-1.981-12.77c-.7-8.613-.383-17.336-.113-26.086s.445-17.548.214-26.337q-.153-6.591-.579-13.173c-.127-2.194-.3-4.386-.476-6.577q-.295-3.285-.638-6.566-1.414-13.12-3.763-26.135c-1.617-8.665-3.5-17.289-5.763-25.837a.532.532,0,0,0-.629-.341A.461.461,0,0,0,602.293,718.755Z" transform="translate(-586.725 -692.521)" fill="#fff" style="mix-blend-mode: soft-light;isolation: isolate"/>
    </g>
    <g id="Group_176744" data-name="Group 176744" transform="translate(483.164 481.127)">
      <g id="Group_176743" data-name="Group 176743" transform="translate(0 0)">
        <path id="Path_41710" data-name="Path 41710" d="M707.268,832.937a3.656,3.656,0,0,1-5.983-1.019c-5.911-13.049-19.286-51.453,2.8-95.7,18.654-37.362,25.218-59.394,27.5-69.6a2.292,2.292,0,0,1,4.335-.421C745.779,688.526,771.791,764.478,707.268,832.937Z" transform="translate(-691.843 -664.828)" fill="#21be41"/>
        <path id="Path_41711" data-name="Path 41711" d="M781.362,1168.6a1,1,0,0,1-.2.016,1.014,1.014,0,0,1-1-1.029c.01-.635,1.245-64.06,24.834-117.181a1.014,1.014,0,1,1,1.853.823c-23.418,52.735-24.651,115.759-24.661,116.389A1.014,1.014,0,0,1,781.362,1168.6Z" transform="translate(-769.17 -1001.872)" fill="#21be41" style="mix-blend-mode: soft-light;isolation: isolate"/>
      </g>
    </g>
    <g id="Group_176747" data-name="Group 176747" transform="translate(465.736 481.186)">
      <path id="Path_41712" data-name="Path 41712" d="M700.343,2165.832s52.119,71.392,66.223,85.348c16.371,16.2,45.367-4.958,39.331-20.622s-62.146-71.844-62.146-71.844Z" transform="translate(-681.857 -1972.765)" fill="url(#linear-gradient-2)"/>
      <path id="Path_41713" data-name="Path 41713" d="M900.14,838.731,1070.065,722l46.455,176.768-202.691,9.869Z" transform="translate(-856.776 -714.938)" fill="url(#linear-gradient-3)"/>
      <ellipse id="Ellipse_659" data-name="Ellipse 659" cx="19.137" cy="93.921" rx="19.137" ry="93.921" transform="translate(194.48 10.142) rotate(-15.366)" fill="#7d97f4"/>
      <path id="Path_41714" data-name="Path 41714" d="M2316.625,914.228c-2.134-1.238-7.565-6.783-15.33-22.847-7.5-15.525-14.99-36.279-21.08-58.439s-10.26-43.825-11.743-61c-1.535-17.777.3-25.318,1.5-27.473,2.134,1.238,7.565,6.783,15.33,22.848,7.5,15.525,14.99,36.279,21.08,58.439s10.26,43.825,11.743,61C2319.662,904.532,2317.827,912.074,2316.625,914.228Z" transform="translate(-2054.219 -734.608)" fill="url(#linear-gradient-4)"/>
      <g id="Group_176746" data-name="Group 176746" transform="translate(213.668 9.857)">
        <g id="Group_176745" data-name="Group 176745" clip-path="url(#clip-path)">
          <path id="Path_41715" data-name="Path 41715" d="M2271.045,1212.818c4.229,15.388-.633,30.14-17.039,34.649s-33.135-4.311-37.363-19.7,5.644-31.517,22.05-36.026S2266.816,1197.43,2271.045,1212.818Z" transform="translate(-2222.167 -1135.11)" fill="url(#linear-gradient-5)"/>
        </g>
      </g>
      <path id="Path_41717" data-name="Path 41717" d="M563.906,1640.169a109.133,109.133,0,0,1,35.683-7.932c1.965,24.816,9.4,49.2,21.611,73.213l-38.638,10.618a12.985,12.985,0,0,1-15.275-7.159c-5.277-11.667-13.265-31.52-15.279-48.675A19.217,19.217,0,0,1,563.906,1640.169Z" transform="translate(-551.875 -1511.84)" fill="url(#linear-gradient-6)"/>
      <path id="Path_41718" data-name="Path 41718" d="M637.558,1735.4l-30.1,8.273a2.847,2.847,0,0,1-3.469-3.6.8.8,0,1,1,1.531.484,1.241,1.241,0,0,0,1.513,1.571l30.1-8.272a1.243,1.243,0,0,0,.868-1.526l-.589-2.142a1.243,1.243,0,0,0-1.526-.868l-30.327,8.334a.8.8,0,1,1-.425-1.548l30.327-8.334a2.85,2.85,0,0,1,3.5,1.991l.589,2.142A2.85,2.85,0,0,1,637.558,1735.4Z" transform="translate(-597.377 -1595.384)" fill="#7d97f4"/>
      <path id="Path_41719" data-name="Path 41719" d="M645.423,1848.395l-30.1,8.272a2.847,2.847,0,0,1-3.469-3.6.8.8,0,1,1,1.531.484,1.241,1.241,0,0,0,1.513,1.571l30.1-8.272a1.243,1.243,0,0,0,.868-1.526l-.589-2.142a1.243,1.243,0,0,0-1.526-.868l-30.327,8.334A.8.8,0,1,1,613,1849.1l30.327-8.334a2.85,2.85,0,0,1,3.5,1.991l.589,2.142A2.85,2.85,0,0,1,645.423,1848.395Z" transform="translate(-604.263 -1694.312)" fill="#7d97f4"/>
      <path id="Path_41720" data-name="Path 41720" d="M701.442,1967.871l-30.1,8.272a2.847,2.847,0,0,1-3.469-3.6.8.8,0,1,1,1.531.483,1.242,1.242,0,0,0,1.513,1.572l30.1-8.272a1.243,1.243,0,0,0,.868-1.526l-.589-2.142a1.242,1.242,0,0,0-1.526-.868l-30.327,8.334a.8.8,0,0,1-.425-1.548l30.327-8.334a2.85,2.85,0,0,1,3.5,1.991l.589,2.142A2.851,2.851,0,0,1,701.442,1967.871Z" transform="translate(-653.307 -1798.911)" fill="#7d97f4"/>
      <path id="Path_41721" data-name="Path 41721" d="M762.329,2100.841l-30.1,8.273a2.847,2.847,0,0,1-3.469-3.6.8.8,0,1,1,1.531.483,1.242,1.242,0,0,0,1.513,1.572l30.1-8.272a1.243,1.243,0,0,0,.868-1.526l-.589-2.142a1.243,1.243,0,0,0-1.526-.868l-30.327,8.334a.8.8,0,1,1-.425-1.548l30.327-8.334a2.85,2.85,0,0,1,3.5,1.99l.589,2.142A2.85,2.85,0,0,1,762.329,2100.841Z" transform="translate(-706.612 -1915.325)" fill="#7d97f4"/>
      <path id="Path_41722" data-name="Path 41722" d="M1001.758,2467.656a20.376,20.376,0,0,1-4.313.7,20.09,20.09,0,0,1-16.713-7.316L942,2414.214a.8.8,0,1,1,1.237-1.023l38.734,46.822a18.5,18.5,0,0,0,15.39,6.735,18.121,18.121,0,0,0,14.3-8.158q.259-.391.516-.8a.8.8,0,1,1,1.358.856q-.267.424-.535.829A19.651,19.651,0,0,1,1001.758,2467.656Z" transform="translate(-893.261 -2195.3)" fill="#7d97f4"/>
      <path id="Path_41723" data-name="Path 41723" d="M866.452,2322.151a.8.8,0,0,1-.832-.262l-4.321-5.223a.8.8,0,1,1,1.237-1.023l4.321,5.223a.8.8,0,0,1-.405,1.286Z" transform="translate(-822.61 -2109.898)" fill="url(#linear-gradient-7)"/>
      <path id="Path_41724" data-name="Path 41724" d="M2376.659,1244.066a.8.8,0,0,1-.969-.507c-2.607-7.393-6.765-12.3-12.358-14.573-9.673-3.937-20.492,1.3-20.6,1.356a.8.8,0,0,1-.71-1.439c.468-.231,11.581-5.61,21.916-1.4,6.037,2.458,10.5,7.681,13.267,15.526a.8.8,0,0,1-.49,1.024Z" transform="translate(-2118.731 -1156.095)" fill="#91b3fa"/>
    </g>
    <g id="Group_176754" data-name="Group 176754" transform="translate(455.667 621.365)">
      <path id="Path_41725" data-name="Path 41725" d="M1636.28,2240.331a7.262,7.262,0,0,1,6.509-1.681c4.226.771,7.987,2.239,10.62,0s3.559.766,3.559.766l-7.884,5.994Z" transform="translate(-1491.187 -2182.2)" fill="url(#linear-gradient-8)"/>
      <g id="Group_176749" data-name="Group 176749" transform="translate(0)">
        <path id="Path_41726" data-name="Path 41726" d="M1024.608,2281.207l1.354,36.371a99.991,99.991,0,0,0,11,3.122c2.181-7.022,6.984-15.641,10.917-22.049C1033.425,2293.542,1024.608,2281.207,1024.608,2281.207Z" transform="translate(-955.677 -2220.184)" fill="#feba00"/>
        <path id="Path_41727" data-name="Path 41727" d="M1183.583,2276.238c-19.822,21.4-35.865,22.661-48.875,18.062-3.933,6.408-8.736,15.027-10.917,22.05,52.933,11.67,65.4-36.992,65.4-36.992Z" transform="translate(-1042.51 -2215.833)" fill="url(#linear-gradient-9)"/>
        <path id="Path_41728" data-name="Path 41728" d="M1598.407,2251.36s1.565-6.542,6.279-5.645,15.418,6.718,18.177,5.645,6.286-3.639,8.1-2.732l-3.187,3.963s8.194-4.727,9.6-1.823l-13.635,7.673S1603.792,2256.444,1598.407,2251.36Z" transform="translate(-1458.03 -2189.036)" fill="url(#linear-gradient-10)"/>
        <path id="Path_41729" data-name="Path 41729" d="M471.321,2337.372s-6.763-96.556,42.541-126.581c0,0,13.784-9.1,30.96,8.523s11.645,35.932-2.769,53.091-29.1,47.81-25.6,64.966Z" transform="translate(-471.008 -2156.48)" fill="#feba00"/>
        <path id="Path_41730" data-name="Path 41730" d="M899.217,2016.082c-.013,1.151-16.431,24.471-16.431,24.471s2.947,5.8,17.016,10.516l12.144-24.969Z" transform="translate(-831.514 -1988.071)" fill="url(#linear-gradient-11)"/>
        <path id="Path_41731" data-name="Path 41731" d="M962.892,2520.928s31.15,26.088,64.786,14.7a8.008,8.008,0,0,1,6.315.476l9.67,5.107a8.632,8.632,0,0,0,11.44-3.2,18.166,18.166,0,0,0,2.718-7.273l-18.922-7.66,1.395-2.32s-9.238-.783-11.656,5.838c0,0-17.6,7.319-47.272-25.321C981.366,2501.276,967.9,2512.726,962.892,2520.928Z" transform="translate(-901.646 -2412.851)" fill="url(#linear-gradient-12)"/>
        <path id="Path_41732" data-name="Path 41732" d="M809.907,2486.253a.686.686,0,0,1-.385-.118c-13.154-8.887-19.342-23.233-19.4-23.377a.689.689,0,0,1,1.269-.538c.06.14,6.1,14.121,18.906,22.773a.689.689,0,0,1-.386,1.26Z" transform="translate(-750.337 -2378.29)" fill="#b58501"/>
        <path id="Path_41733" data-name="Path 41733" d="M864.062,2288.015a.688.688,0,0,1-.58-.316c-.04-.061-4.049-6.3-11.684-19.974-2.325-4.163-5.376-6.8-9.07-7.833-6.125-1.715-12.034,1.573-12.093,1.606a.689.689,0,0,1-.681-1.2c.261-.148,6.448-3.6,13.133-1.739,4.066,1.134,7.4,3.991,9.914,8.491,7.609,13.625,11.6,19.838,11.639,19.9a.689.689,0,0,1-.579,1.063Z" transform="translate(-784.956 -2199.876)" fill="#b58501"/>
        <g id="Group_176748" data-name="Group 176748" transform="translate(46.718)">
          <path id="Path_41734" data-name="Path 41734" d="M953.82,1908.764s5.842,13.42,6.234,20.463,1.91,11.614-6.234,13.032-15.005-2.639-18.722-9.655c0,0-5.824-10.811-4.517-15.239S953.82,1908.764,953.82,1908.764Z" transform="translate(-919.909 -1894.115)" fill="url(#linear-gradient-13)"/>
          <path id="Path_41735" data-name="Path 41735" d="M864.186,1824.56l.464-.2a1.118,1.118,0,0,0,.546-1.536c-1.148-2.219-3.387-7.3-.5-8.49,3.728-1.529,18.492-4.54,21.678-9.779,3.062-5.035.349-11.535-3.728-13.383a.561.561,0,0,0-.734.239l-.34.643a.554.554,0,0,1-1.021-.1h0a.551.551,0,0,0-1-.143c-.979,1.567-3.623,4.108-10.693,5.413-10.047,1.854-16.69,5.92-16.855,12.863a.554.554,0,0,1-.857.457c-.742-.452-1.929-.664-3.516.67-2.759,2.32-1.63,8.339,4.419,13.29a.55.55,0,0,1-.026.886c-1.1.714-2.731,2.412,1.5,4.677,4.381,2.342,7.653,2.15,8.913,1.942a.551.551,0,0,0,.447-.665l-1.345-6.1a.553.553,0,0,1,.541-.673Z" transform="translate(-846.213 -1791.115)" fill="url(#linear-gradient-14)"/>
          <path id="Path_41736" data-name="Path 41736" d="M940.984,2023.7s-2.229-8.572-6.072-6.169,1.994,9.6,5.084,9.926Z" transform="translate(-922.758 -1988.966)" fill="url(#linear-gradient-15)"/>
        </g>
      </g>
      <g id="Group_176753" data-name="Group 176753" transform="translate(133.336 1.608)">
        <g id="Group_176750" data-name="Group 176750" transform="translate(0 55.782)">
          <path id="Path_41737" data-name="Path 41737" d="M1560.235,2610.911s-2.832-7.454-6.139-6.771a22.61,22.61,0,0,0-6.926,3.224l-5.313,7.186s14.916,5.876,20.161,2.509a114.781,114.781,0,0,0,34.474-.524,75.4,75.4,0,0,1-5.42-16.336C1581.328,2605.713,1570.833,2609.833,1560.235,2610.911Z" transform="translate(-1541.857 -2556.845)" fill="url(#linear-gradient-16)"/>
          <path id="Path_41738" data-name="Path 41738" d="M1986.984,2252.03s-21.813,27.474-49.864,43.352a75.4,75.4,0,0,0,5.419,16.336c14.552-2.388,31.393-8.086,45.671-20.749Z" transform="translate(-1887.904 -2252.03)" fill="url(#linear-gradient-17)"/>
        </g>
        <path id="Path_41739" data-name="Path 41739" d="M2341.8,2343.916s-.053-34.788-20.279-70.71a57.574,57.574,0,0,1-6.6-37.058l2.216-14.312s27.758-9.393,58.527-.4c0,0,42.664,35.214,14.15,125.28Z" transform="translate(-2218.055 -2166.053)" fill="url(#linear-gradient-18)"/>
        <path id="Path_41740" data-name="Path 41740" d="M2375.537,2073.018l7.2,17.292a3.447,3.447,0,0,0,2.6,2.071c4.15.711,14.187,1.823,20.778-2.511a1.675,1.675,0,0,0,.448-2.355l-13.3-19.091Z" transform="translate(-2271.732 -2035.503)" fill="url(#linear-gradient-19)"/>
        <g id="Group_176751" data-name="Group 176751" transform="translate(120.366 96.136)">
          <path id="Path_41741" data-name="Path 41741" d="M2509.731,2614.477a1.6,1.6,0,0,0-1.01,2.284l20.823,39.928a1.6,1.6,0,0,0,1.86.8l68.114-19.666a1.6,1.6,0,0,0,1.092-1.979l-11.733-40.618a1.6,1.6,0,0,0-1.943-1.1Z" transform="translate(-2508.54 -2591.832)" fill="url(#linear-gradient-20)"/>
          <path id="Path_41742" data-name="Path 41742" d="M2544.357,2594.071a1.672,1.672,0,0,0-1.182,2.205l16.668,45.279a1.673,1.673,0,0,0,2.034,1.029l67.909-19.606a1.673,1.673,0,0,0,1.171-1.96l-9.411-43.578a1.673,1.673,0,0,0-2.023-1.274Z" transform="translate(-2538.771 -2576.118)" fill="#bdd0fb"/>
          <path id="Path_41743" data-name="Path 41743" d="M2588.54,2610.8a2.067,2.067,0,0,0-1.7,2.51l11.321,48.88a2.068,2.068,0,0,0,2.588,1.52l66.879-19.31a2.068,2.068,0,0,0,1.429-2.5l-10.285-39.9a2.068,2.068,0,0,0-2.313-1.528Z" transform="translate(-2577.041 -2597.417)" fill="#feba00"/>
        </g>
        <path id="Path_41744" data-name="Path 41744" d="M2733.317,2345.6c5.191-39.211-25.027-69.362-25.027-69.362l-17.979,20.959c13.65,17.014,20.138,32.6,23.1,44.849C2717.345,2340.9,2726.809,2339.093,2733.317,2345.6Z" transform="translate(-2547.313 -2217.441)" fill="url(#linear-gradient-21)"/>
        <path id="Path_41745" data-name="Path 41745" d="M2710.182,2486.644a.459.459,0,0,1-.446-.351c-3.677-15.188-11.42-30.217-23.014-44.669a.46.46,0,1,1,.717-.575c11.679,14.558,19.481,29.708,23.19,45.028a.459.459,0,0,1-.447.567Z" transform="translate(-2544.082 -2361.58)" fill="url(#linear-gradient-22)"/>
        <path id="Path_41746" data-name="Path 41746" d="M2746.838,2796.8a72.045,72.045,0,0,1,2.046,23.926,3.157,3.157,0,0,1-2.919,2.829c-1.741.122-4.111.282-6.229.4-2.328.134-4.911-1.337-6.639-2.567a1.039,1.039,0,0,0-1.53,1.314c1.289,2.523,4.562,4.768,6.818,6.089a1.077,1.077,0,0,1-.248,1.967l-9.646,2.734c15.85,14.933,26.315-1.775,26.315-1.775a75.6,75.6,0,0,0,11.936-31.367C2760.233,2793.846,2750.769,2795.655,2746.838,2796.8Z" transform="translate(-2580.738 -2672.195)" fill="url(#linear-gradient-23)"/>
        <g id="Group_176752" data-name="Group 176752" transform="translate(94.569)">
          <path id="Path_41747" data-name="Path 41747" d="M2345.617,1886.242c-.3.284-12.758,24.744-12.758,24.744l14.117,6.815,15.25-21.429S2350.677,1881.478,2345.617,1886.242Z" transform="translate(-2328.937 -1875.183)" fill="url(#linear-gradient-24)"/>
          <path id="Path_41748" data-name="Path 41748" d="M2328.236,1827.792l-7.041,11.737a2.181,2.181,0,0,1-.386.48c-.838.78-3.706,3.049-5.923-.04-1.89-2.633-3.662-5.027-5.562-6.014a2.25,2.25,0,0,0-3.038,1,84,84,0,0,0-4.819,11.43,2.241,2.241,0,0,0,1.3,2.749,62.449,62.449,0,0,0,13.522,3.945,2.252,2.252,0,0,0,2.129-.905c2.157-2.955,8.236-11.213,10.311-13.28,1.928-1.92,5.485-1.2,7.088-.736a2.263,2.263,0,0,0,1.8-.236c1.626-.98,4.465-3.419,1.868-7.55a2.254,2.254,0,0,1,.7-3.061c1.816-1.195,3.786-3.437,1.909-7.068-1.9-3.676-5.294-4.006-7.606-3.723a2.338,2.338,0,0,1-2.453-1.364,1.489,1.489,0,0,0-1.162-.915,2.186,2.186,0,0,1-1.769-2.567,5.767,5.767,0,0,0-3.22-6.608c-6.091-3.349-11.427,2.108-12.784,6.714s5.454,7.862,9.738,8.405c3.147.4,4.872,3.833,5.566,5.629A2.255,2.255,0,0,1,2328.236,1827.792Z" transform="translate(-2301.364 -1804.031)" fill="url(#linear-gradient-25)"/>
          <path id="Path_41749" data-name="Path 41749" d="M2499.942,2064.906s2.708-7.925,6.175-7.634,6.2,3.745,1.9,7.627C2502.672,2069.729,2499.942,2064.906,2499.942,2064.906Z" transform="translate(-2475.216 -2025.733)" fill="url(#linear-gradient-26)"/>
        </g>
      </g>
    </g>
    <g id="Group_176763" data-name="Group 176763" transform="translate(508.894 475.054)">
      <g id="Group_176758" data-name="Group 176758" transform="translate(45.985 0)">
        <g id="Group_176755" data-name="Group 176755" opacity="0.3">
          <path id="Path_41750" data-name="Path 41750" d="M1270.452,685.708a1.431,1.431,0,0,1-1.536-1.142c-.32-1.585-.575-3.207-.759-4.822a1.431,1.431,0,0,1,1.26-1.584l.028,0a1.431,1.431,0,0,1,1.557,1.263c.175,1.534.417,3.075.721,4.58a1.431,1.431,0,0,1-1.12,1.686A1.379,1.379,0,0,1,1270.452,685.708Zm-1.084-12.421a1.433,1.433,0,0,1-1.568-1.458c.038-1.623.146-3.261.32-4.867a1.431,1.431,0,1,1,2.846.309c-.166,1.527-.268,3.083-.3,4.625A1.431,1.431,0,0,1,1269.368,673.286Zm1.677-12.351a1.432,1.432,0,0,1-1.522-1.776c.4-1.571.868-3.144,1.4-4.676a1.431,1.431,0,0,1,2.7.938c-.5,1.454-.951,2.948-1.328,4.44A1.432,1.432,0,0,1,1271.045,660.935Zm4.4-11.668a1.432,1.432,0,0,1-1.408-2.078c.739-1.443,1.55-2.872,2.409-4.246a1.431,1.431,0,0,1,2.427,1.518c-.816,1.3-1.586,2.661-2.288,4.033A1.43,1.43,0,0,1,1275.444,649.267Zm6.89-10.394a1.431,1.431,0,0,1-1.232-2.344c1.038-1.24,2.144-2.453,3.288-3.605a1.431,1.431,0,1,1,2.032,2.016c-1.087,1.095-2.138,2.248-3.125,3.426A1.427,1.427,0,0,1,1282.333,638.873Zm9.017-8.611a1.431,1.431,0,0,1-1-2.563c1.289-.981,2.636-1.92,4-2.788a1.431,1.431,0,0,1,1.535,2.416c-1.3.826-2.58,1.717-3.8,2.649A1.422,1.422,0,0,1,1291.35,630.262Zm51.889-8.34a1.426,1.426,0,0,1-.6-.072c-1.454-.5-2.949-.946-4.444-1.321a1.431,1.431,0,0,1,.7-2.776c1.575.395,3.149.863,4.68,1.391a1.432,1.432,0,0,1-.332,2.779Zm-41.2,1.945a1.432,1.432,0,0,1-.727-2.728c1.475-.67,3-1.285,4.524-1.826a1.431,1.431,0,1,1,.956,2.7c-1.45.514-2.9,1.1-4.3,1.733A1.435,1.435,0,0,1,1302.044,623.868Zm29.026-4.655a1.455,1.455,0,0,1-.288,0c-1.53-.163-3.087-.262-4.629-.3a1.431,1.431,0,1,1,.061-2.862c1.622.035,3.26.139,4.87.311a1.431,1.431,0,0,1-.015,2.848Zm-17.172.809a1.431,1.431,0,0,1-.419-2.828c1.586-.323,3.207-.581,4.818-.768l.03,0a1.431,1.431,0,0,1,.3,2.846c-1.531.178-3.07.423-4.577.73C1314,620.01,1313.948,620.018,1313.9,620.023Z" transform="translate(-1267.8 -616.054)" fill="url(#linear-gradient-20)"/>
          <path id="Path_41751" data-name="Path 41751" d="M1922.1,668.59a1.425,1.425,0,0,1-.836-.178c-.643-.363-1.3-.717-1.965-1.056a1.431,1.431,0,1,1,1.3-2.548c.7.355,1.391.729,2.067,1.11a1.431,1.431,0,0,1-.569,2.672Z" transform="translate(-1837.497 -658.599)" fill="url(#linear-gradient-20)"/>
        </g>
        <g id="Group_176756" data-name="Group 176756" transform="translate(26.175 39.495)" opacity="0.3">
          <path id="Path_41752" data-name="Path 41752" d="M2145.8,938.31a1.431,1.431,0,0,1-1.519-1.066c-.185-.714-.388-1.437-.6-2.147a1.431,1.431,0,0,1,2.739-.831c.227.748.441,1.509.635,2.261a1.431,1.431,0,0,1-1.252,1.784Z" transform="translate(-2060.736 -933.25)" fill="url(#linear-gradient-20)"/>
          <path id="Path_41753" data-name="Path 41753" d="M1576.63,1075.856q-.983.093-1.977.154a1.431,1.431,0,0,1-.174-2.858c1.529-.093,3.051-.248,4.54-.463a1.431,1.431,0,1,1,.41,2.833C1578.507,1075.655,1577.565,1075.767,1576.63,1075.856Zm-9.533.1a1.473,1.473,0,0,1-.244,0c-1.592-.119-3.2-.307-4.77-.559a1.431,1.431,0,1,1,.453-2.826c1.494.239,3.019.417,4.532.531a1.431,1.431,0,0,1,.03,2.852Zm19.693-2.022a1.431,1.431,0,0,1-.53-2.8c1.453-.419,2.908-.9,4.324-1.447a1.431,1.431,0,0,1,1.022,2.674c-1.492.57-3.024,1.083-4.554,1.524A1.451,1.451,0,0,1,1586.789,1073.93Zm-31.755-.237a1.425,1.425,0,0,1-.552-.057c-1.526-.466-3.05-1-4.531-1.595a1.431,1.431,0,0,1,1.064-2.657c1.406.563,2.853,1.072,4.3,1.515a1.432,1.432,0,0,1-.283,2.794Zm43.09-4.442a1.432,1.432,0,0,1-.825-2.68c1.325-.727,2.637-1.522,3.9-2.362a1.431,1.431,0,1,1,1.584,2.384c-1.33.884-2.711,1.721-4.106,2.487A1.428,1.428,0,0,1,1598.124,1069.251Zm10.033-7.053a1.431,1.431,0,0,1-1.083-2.5c1.137-1,2.245-2.065,3.293-3.157a1.431,1.431,0,1,1,2.066,1.981c-1.1,1.149-2.269,2.267-3.465,3.323A1.425,1.425,0,0,1,1608.157,1062.2Zm8.257-9.073a1.431,1.431,0,0,1-1.292-2.266c.892-1.227,1.742-2.505,2.527-3.8a1.431,1.431,0,0,1,2.448,1.484c-.826,1.361-1.72,2.707-2.659,4A1.428,1.428,0,0,1,1616.414,1053.125Zm6.081-10.657a1.431,1.431,0,0,1-1.447-1.993c.6-1.392,1.151-2.825,1.632-4.26a1.431,1.431,0,1,1,2.714.91c-.507,1.511-1.085,3.021-1.719,4.486A1.432,1.432,0,0,1,1622.5,1042.468Zm3.595-11.736a1.433,1.433,0,0,1-1.542-1.69c.28-1.486.5-3,.653-4.513a1.431,1.431,0,1,1,2.848.291c-.162,1.588-.393,3.186-.687,4.751A1.433,1.433,0,0,1,1626.09,1030.731Zm.928-12.231-.088.005a1.431,1.431,0,0,1-1.478-1.382c-.037-1.115-.11-2.242-.215-3.351q-.057-.6-.127-1.2a1.431,1.431,0,0,1,1.256-1.587,1.415,1.415,0,0,1,1.587,1.255q.073.629.134,1.262c.111,1.166.187,2.352.226,3.525A1.431,1.431,0,0,1,1627.018,1018.5Z" transform="translate(-1540.206 -1001.295)" fill="url(#linear-gradient-20)"/>
          <path id="Path_41754" data-name="Path 41754" d="M1481.542,1447.176a1.426,1.426,0,0,1-.843-.181c-.673-.384-1.351-.789-2.014-1.2a1.431,1.431,0,0,1,1.519-2.426c.63.395,1.274.78,1.913,1.144a1.431,1.431,0,0,1-.575,2.668Z" transform="translate(-1478.013 -1379.656)" fill="url(#linear-gradient-20)"/>
        </g>
        <g id="Group_176757" data-name="Group 176757" transform="translate(14.237 13.802)">
          <path id="Path_41755" data-name="Path 41755" d="M1397.961,803.4a.669.669,0,0,0,.765.133l7.342-3.518a35.465,35.465,0,0,0,10.585,4.469l2.6,7.708a.669.669,0,0,0,.629.455l9.765.063a.67.67,0,0,0,.635-.447l2.7-7.674a35.463,35.463,0,0,0,10.642-4.332l7.3,3.613a.669.669,0,0,0,.767-.123l6.95-6.86a.669.669,0,0,0,.133-.765l-3.518-7.342a35.463,35.463,0,0,0,4.469-10.585l7.709-2.6a.669.669,0,0,0,.455-.629l.063-9.765a.668.668,0,0,0-.447-.635l-7.674-2.7a35.464,35.464,0,0,0-4.332-10.642l3.613-7.3a.669.669,0,0,0-.123-.767l-6.86-6.95a.669.669,0,0,0-.765-.133l-7.342,3.518a35.461,35.461,0,0,0-10.585-4.469l-2.6-7.709a.669.669,0,0,0-.63-.455l-9.765-.063a.669.669,0,0,0-.635.447l-2.7,7.674a35.458,35.458,0,0,0-10.642,4.332l-7.3-3.613a.669.669,0,0,0-.767.123l-6.95,6.86a.669.669,0,0,0-.133.765l3.518,7.342a35.463,35.463,0,0,0-4.469,10.585l-7.709,2.6a.669.669,0,0,0-.455.63l-.063,9.765a.669.669,0,0,0,.447.635l7.674,2.7a35.466,35.466,0,0,0,4.332,10.642l-3.613,7.3a.669.669,0,0,0,.123.767Z" transform="translate(-1382.138 -726.899)" fill="url(#linear-gradient-32)"/>
          <path id="Path_41756" data-name="Path 41756" d="M1658.635,1012.228a9.82,9.82,0,1,1,1.421-.241A9.831,9.831,0,0,1,1658.635,1012.228Zm-1.614-17.269a7.642,7.642,0,0,0-1.1.186,7.5,7.5,0,1,0,1.1-.186Z" transform="translate(-1614.807 -959.546)" fill="#fff" opacity="0.7"/>
          <path id="Path_41757" data-name="Path 41757" d="M1560.441,924.555a24.568,24.568,0,0,1-2.478.109h0q-.393,0-.786-.018a24.313,24.313,0,0,1-3.838-.456l-.052-.01-.146-.031-.284-.061a.573.573,0,0,1-.446-.5.579.579,0,0,1,.011-.179.573.573,0,0,1,.683-.434,23.018,23.018,0,0,0,24.335-9.993,22.847,22.847,0,0,0,3.669-12.3,23.267,23.267,0,0,0-.1-2.364,22.993,22.993,0,1,0-42.7,13.893.572.572,0,1,1-.986.582,24.065,24.065,0,0,1-3.233-9.966,24.14,24.14,0,0,1,24.184-26.429,24.142,24.142,0,0,1,23.87,21.81,24.693,24.693,0,0,1,.109,2.481,24.141,24.141,0,0,1-21.814,23.871Z" transform="translate(-1515.076 -857.778)" fill="#fff" opacity="0.7"/>
        </g>
      </g>
      <g id="Group_176762" data-name="Group 176762" transform="translate(0 58.918)">
        <g id="Group_176759" data-name="Group 176759" opacity="0.3">
          <path id="Path_41758" data-name="Path 41758" d="M915.052,1487.016a.884.884,0,0,1-.9-.552c-.278-.7-.54-1.412-.776-2.125a.884.884,0,1,1,1.678-.556c.225.679.474,1.36.74,2.026a.883.883,0,0,1-.738,1.208Z" transform="translate(-911.48 -1434.125)" fill="url(#linear-gradient-20)"/>
          <path id="Path_41759" data-name="Path 41759" d="M900.126,1135.611a.884.884,0,0,1-.949-.708,38.388,38.388,0,0,1-.563-3.848q-.039-.406-.069-.815a.915.915,0,0,1,.817-.947.884.884,0,0,1,.947.817q.029.391.065.779a36.732,36.732,0,0,0,.537,3.67.884.884,0,0,1-.694,1.04C900.186,1135.6,900.156,1135.608,900.126,1135.611Zm-.672-9.154a.918.918,0,0,1-.127,0,.885.885,0,0,1-.84-.926,38.3,38.3,0,0,1,.515-4.677.884.884,0,0,1,1.742.3,36.675,36.675,0,0,0-.492,4.461A.884.884,0,0,1,899.454,1126.457Zm1.568-9.043a.884.884,0,0,1-.929-1.138,38.127,38.127,0,0,1,1.65-4.409.884.884,0,0,1,1.614.721,36.3,36.3,0,0,0-1.573,4.2A.885.885,0,0,1,901.022,1117.414Zm3.743-8.382a.884.884,0,0,1-.839-1.337,38.315,38.315,0,0,1,2.678-3.87.884.884,0,0,1,1.389,1.094,36.452,36.452,0,0,0-2.554,3.69A.882.882,0,0,1,904.765,1109.032Zm5.676-7.213a.884.884,0,0,1-.706-1.508,38.673,38.673,0,0,1,3.536-3.1.884.884,0,1,1,1.083,1.4,36.84,36.84,0,0,0-3.373,2.96A.882.882,0,0,1,910.441,1101.819Zm7.254-5.616a.884.884,0,0,1-.535-1.64,38.02,38.02,0,0,1,4.185-2.146.884.884,0,0,1,.708,1.62,36.248,36.248,0,0,0-3.99,2.046A.88.88,0,0,1,917.7,1096.2Zm8.4-3.671a.884.884,0,0,1-.333-1.728,38.327,38.327,0,0,1,4.586-1.054.884.884,0,0,1,.289,1.745,36.293,36.293,0,0,0-4.374,1A.881.881,0,0,1,926.1,1092.532Zm13.652-1.406a.864.864,0,0,1-.156,0,36.682,36.682,0,0,0-3.9-.107c-.2,0-.392.01-.585.019a.884.884,0,0,1-.075-1.767c.206-.008.413-.016.62-.02a38.466,38.466,0,0,1,4.087.113.884.884,0,0,1,.012,1.761Z" transform="translate(-898.486 -1089.24)" fill="url(#linear-gradient-20)"/>
        </g>
        <g id="Group_176760" data-name="Group 176760" transform="translate(17.481 50.805)" opacity="0.3">
          <path id="Path_41760" data-name="Path 41760" d="M1106.1,1522.6a.884.884,0,0,1-.178-1.759,36.525,36.525,0,0,0,4.352-.738.884.884,0,0,1,.4,1.722,38.524,38.524,0,0,1-4.562.773Zm-4.517.214c-.032,0-.063,0-.1,0a38.668,38.668,0,0,1-4.617-.335.884.884,0,0,1,.234-1.753,37,37,0,0,0,4.405.321.884.884,0,0,1,.073,1.764Zm13.308-2.261a.884.884,0,0,1-.387-1.71,36.677,36.677,0,0,0,4.046-1.769.884.884,0,0,1,.8,1.575,38.363,38.363,0,0,1-4.241,1.854A.887.887,0,0,1,1114.891,1520.551Zm-22.259,1.061a.882.882,0,0,1-.307-.025,37.913,37.913,0,0,1-4.4-1.441.884.884,0,1,1,.652-1.643,36.3,36.3,0,0,0,4.2,1.374.884.884,0,0,1-.14,1.735Zm30.293-5.172a.884.884,0,0,1-.579-1.613,36.407,36.407,0,0,0,3.5-2.688.884.884,0,1,1,1.16,1.335,38.457,38.457,0,0,1-3.67,2.819A.882.882,0,0,1,1122.925,1516.439Zm6.814-5.919a.884.884,0,0,1-.74-1.472,36.963,36.963,0,0,0,2.758-3.449.884.884,0,0,1,1.445,1.018,38.622,38.622,0,0,1-2.891,3.616A.88.88,0,0,1,1129.739,1510.521Zm5.2-7.381a.885.885,0,0,1-.861-1.3,36.161,36.161,0,0,0,1.849-4.01.884.884,0,0,1,1.648.642,38.2,38.2,0,0,1-1.939,4.205A.884.884,0,0,1,1134.94,1503.14Z" transform="translate(-1081.328 -1497.268)" fill="url(#linear-gradient-20)"/>
          <path id="Path_41761" data-name="Path 41761" d="M1041.752,1645.65a.879.879,0,0,1-.507-.1c-.664-.363-1.32-.747-1.95-1.142a.884.884,0,1,1,.938-1.5c.6.376,1.227.743,1.861,1.09a.884.884,0,0,1-.342,1.656Z" transform="translate(-1038.88 -1624.654)" fill="url(#linear-gradient-20)"/>
        </g>
        <g id="Group_176761" data-name="Group 176761" transform="translate(9.419 9.17)">
          <path id="Path_41762" data-name="Path 41762" d="M984.72,1214.083a.448.448,0,0,0,.512.089l4.913-2.354a23.731,23.731,0,0,0,7.083,2.991l1.741,5.158a.448.448,0,0,0,.421.3l6.535.042a.448.448,0,0,0,.425-.3l1.808-5.135a23.727,23.727,0,0,0,7.121-2.9l4.882,2.418a.448.448,0,0,0,.513-.083l4.651-4.591a.448.448,0,0,0,.089-.512l-2.354-4.913a23.73,23.73,0,0,0,2.991-7.083l5.158-1.741a.448.448,0,0,0,.3-.421l.042-6.535a.448.448,0,0,0-.3-.425l-5.135-1.808a23.727,23.727,0,0,0-2.9-7.121l2.418-4.882a.448.448,0,0,0-.083-.513l-4.591-4.651a.448.448,0,0,0-.512-.089l-4.913,2.354a23.725,23.725,0,0,0-7.083-2.991l-1.741-5.158a.447.447,0,0,0-.421-.3l-6.535-.042a.448.448,0,0,0-.425.3l-1.808,5.135a23.724,23.724,0,0,0-7.121,2.9l-4.882-2.418a.448.448,0,0,0-.513.083l-4.65,4.591a.448.448,0,0,0-.089.512l2.354,4.913a23.726,23.726,0,0,0-2.991,7.083l-5.158,1.741a.447.447,0,0,0-.3.421l-.042,6.534a.448.448,0,0,0,.3.425l5.135,1.808a23.733,23.733,0,0,0,2.9,7.121l-2.418,4.882a.448.448,0,0,0,.082.513Z" transform="translate(-974.132 -1162.889)" fill="url(#linear-gradient-37)"/>
          <path id="Path_41763" data-name="Path 41763" d="M1158.323,1353.133a6.7,6.7,0,1,1,.977-.165A6.813,6.813,0,0,1,1158.323,1353.133Zm-1.078-11.556a4.98,4.98,0,0,0-.712.12,4.919,4.919,0,0,0,2.346,9.553h0a4.919,4.919,0,0,0-1.634-9.674Z" transform="translate(-1128.995 -1317.762)" fill="#fff" opacity="0.7"/>
          <path id="Path_41764" data-name="Path 41764" d="M1089.951,1292.13a16.794,16.794,0,0,1-5.065-.29l-.149-.033a.884.884,0,1,1,.384-1.725,14.936,14.936,0,0,0,3.149.354h.175a14.737,14.737,0,0,0,7.06-1.814,14.967,14.967,0,0,0,3.223-2.382l.024-.023.072-.071a14.788,14.788,0,0,0,4.427-10.5,15.015,15.015,0,0,0-.067-1.53,14.885,14.885,0,1,0-27.641,8.993.875.875,0,0,1,.119.366.884.884,0,0,1-1.641.533,16.653,16.653,0,1,1,30.923-10.062,17.013,17.013,0,0,1,.075,1.711A16.676,16.676,0,0,1,1089.951,1292.13Z" transform="translate(-1059.564 -1246.946)" fill="#fff" opacity="0.7"/>
        </g>
      </g>
    </g>
    <g id="Group_176764" data-name="Group 176764" transform="translate(722.381 522.84)">
      <path id="Path_41765" data-name="Path 41765" d="M2674.14,1010.882l-56.387,18.135a1.7,1.7,0,0,1-2.141-1.1l-2.483-7.721a1.7,1.7,0,0,1,1.1-2.141l56.387-18.135a1.7,1.7,0,0,1,2.142,1.1l2.483,7.721A1.7,1.7,0,0,1,2674.14,1010.882Z" transform="translate(-2613.046 -999.839)" fill="rgba(33,190,65,0.36)"/>
      <path id="Path_41766" data-name="Path 41766" d="M2763.566,1166.747l-64.494,20.742a1.7,1.7,0,0,1-2.141-1.1l-2.483-7.721a1.7,1.7,0,0,1,1.1-2.141l64.494-20.743a1.7,1.7,0,0,1,2.141,1.1l2.483,7.721A1.7,1.7,0,0,1,2763.566,1166.747Z" transform="translate(-2684.24 -1136.296)" fill="rgba(33,190,65,0.36)"/>
      <path id="Path_41767" data-name="Path 41767" d="M2773.264,1383.395l-58.688,18.875a1.7,1.7,0,0,1-2.141-1.1l-2.483-7.721a1.7,1.7,0,0,1,1.1-2.141l58.688-18.875a1.7,1.7,0,0,1,2.142,1.1l2.483,7.721A1.7,1.7,0,0,1,2773.264,1383.395Z" transform="translate(-2697.813 -1325.968)" fill="rgba(33,190,65,0.36)"/>
    </g>
  </g>
</svg>
