<svg id="SvgjsG1014" xmlns="http://www.w3.org/2000/svg" width="24" height="24" viewBox="0 0 24 24">
  <g id="Group_176591" data-name="Group 176591">
    <path id="Path_41684" data-name="Path 41684" d="M0,12A12,12,0,1,1,12,24,12,12,0,0,1,0,12Z" fill="#ffe400"/>
    <path id="Path_41685" data-name="Path 41685" d="M17.723,12h-.032l-.22,0a3.719,3.719,0,0,0-1.463.309,3.261,3.261,0,0,0-.933.617,3.483,3.483,0,0,0-.78,1.118,6.349,6.349,0,0,0-.164,2.583h0l.018.284a.505.505,0,0,1-.21.04,1.388,1.388,0,0,1-.57-.153.511.511,0,0,0-.218-.045.776.776,0,0,0-.383.107.527.527,0,0,0-.27.347.474.474,0,0,0,.182.449,1.558,1.558,0,0,0,.476.272c.054.021.119.042.187.063.237.075.6.188.689.408a.529.529,0,0,1-.06.435,4.211,4.211,0,0,1-.651,1.012,3.617,3.617,0,0,1-.777.686,2.865,2.865,0,0,1-1.092.425.3.3,0,0,0-.251.312.393.393,0,0,0,.031.13h0a.8.8,0,0,0,.434.37,4.99,4.99,0,0,0,1.251.326,1.481,1.481,0,0,1,.077.275c.021.1.043.195.074.3a.328.328,0,0,0,.343.25,1.671,1.671,0,0,0,.295-.04,3.31,3.31,0,0,1,.672-.076,2.993,2.993,0,0,1,.48.04,2.287,2.287,0,0,1,.9.464A2.91,2.91,0,0,0,17.522,24l.065,0,.093,0a2.9,2.9,0,0,0,1.767-.688h0a2.283,2.283,0,0,1,.9-.462,2.938,2.938,0,0,1,.48-.041,3.355,3.355,0,0,1,.671.071,1.627,1.627,0,0,0,.295.036H21.8a.324.324,0,0,0,.329-.245c.03-.1.052-.2.073-.3a1.559,1.559,0,0,1,.076-.274,4.968,4.968,0,0,0,1.252-.326.8.8,0,0,0,.433-.369A.382.382,0,0,0,24,21.272a.3.3,0,0,0-.251-.312,3.7,3.7,0,0,1-2.513-2.109l-.007-.015a.529.529,0,0,1-.06-.435c.093-.219.451-.333.689-.408.069-.021.133-.042.187-.064a1.441,1.441,0,0,0,.51-.305.484.484,0,0,0,.156-.349A.549.549,0,0,0,22.3,16.8a.737.737,0,0,0-.278-.054.629.629,0,0,0-.259.053,1.453,1.453,0,0,1-.534.152.485.485,0,0,1-.177-.039l.015-.248,0-.037a6.347,6.347,0,0,0-.163-2.584,3.488,3.488,0,0,0-.783-1.121,3.27,3.27,0,0,0-.937-.617A3.735,3.735,0,0,0,17.723,12Z" transform="translate(-5.6 -6)" fill="#fff"/>
  </g>
</svg>
