<svg xmlns="http://www.w3.org/2000/svg" width="25" height="25" viewBox="0 0 25 25">
  <g id="Group_176592" data-name="Group 176592" transform="translate(-326 -106)">
    <circle id="Ellipse_651" data-name="Ellipse 651" cx="12.5" cy="12.5" r="12.5" transform="translate(326 106)" fill="#fff"/>
    <g id="Page-1-3" transform="translate(331.03 108.99)">
      <g id="Artboard-5-8" transform="translate(-0.03 0.01)">
        <g id="Group-3-7" transform="translate(0 0)">
          <g id="Group-24">
            <path id="Fill-3-Copy-4-1" d="M296.142,293.345a9,9,0,0,1-1.536-.31,5.713,5.713,0,0,1-1.078-.41.686.686,0,0,1-.363-.538c.01,0-.082-.655-.082-1.928a13.642,13.642,0,0,1,.072-1.649c.024-.174.106-.313.325-.3a7.012,7.012,0,0,1,1.215.135,9.6,9.6,0,0,1,1.441.361.586.586,0,0,1,.4.477,14.3,14.3,0,0,1,.1,1.774c0,.868-.06,1.723-.087,2S296.4,293.357,296.142,293.345Zm3.775-2.974a.559.559,0,0,0-.179-.408l-2.161-2.119a1.685,1.685,0,0,0-.9-.5s-.815-.2-2.029-.4a8.565,8.565,0,0,0-1.53-.181c-1.076,0-1.115,1.148-1.128,1.263-.027.277-.087,1.011-.087,2.033a22.539,22.539,0,0,0,.113,2.552,1.67,1.67,0,0,0,.968,1.283,15.9,15.9,0,0,0,1.576.585,16.85,16.85,0,0,0,1.713.45c.126.02.868.148,1.215-.317l2.3-2.977a.554.554,0,0,0,.134-.405Zm5.017-4.34a6.183,6.183,0,0,0-.98-.022l-5.163.484a.912.912,0,0,0-.537.313.992.992,0,0,0-.182.369c.069.068.1.1.134.13l2.039,2.083a1.006,1.006,0,0,1,.36.768v1.172a.854.854,0,0,1-.134.541l-1.1,1.481,1.1.427a2.556,2.556,0,0,0,1.241.068l4.736-1.088a1.149,1.149,0,0,0,.854-1.042v-2.885c0-.056-.032-.1-.087-.092l-3.024.6a.228.228,0,0,0-.183.228v1.395a.152.152,0,0,0,.183.131l.948-.221c.049-.014.087.023.087.087v.451a.2.2,0,0,1-.178.186l-1.076.227a.55.55,0,0,1-.72-.587V289.45c0-.781.564-.858.564-.858l3.33-.642a.19.19,0,0,0,.156-.174v-.727a.832.832,0,0,0-.781-.852Zm-6.188-7.571a2.4,2.4,0,0,1,2.113,2.66,2.483,2.483,0,0,1-2.338,2.517,2.378,2.378,0,0,1-2.071-2.671A2.436,2.436,0,0,1,298.746,278.459Zm4.989,3.346a1.671,1.671,0,0,1,1.568-1.715,1.638,1.638,0,0,1,1.363,1.807,1.66,1.66,0,0,1-1.576,1.694A1.612,1.612,0,0,1,303.735,281.805Zm4.152.128a3.34,3.34,0,0,0-3.2-3.472,3.246,3.246,0,0,0-2.567,1.353,4.411,4.411,0,0,0-4.233-3.564,4.769,4.769,0,0,0,0,9.511c.14,0,6.818-.451,6.8-.451a3.274,3.274,0,0,0,3.2-3.377Z" transform="translate(-291.9 -276.25)" fill="#ff7705"/>
          </g>
        </g>
      </g>
    </g>
  </g>
</svg>
