<svg xmlns="http://www.w3.org/2000/svg" xmlns:xlink="http://www.w3.org/1999/xlink" width="22.756" height="22.756" viewBox="0 0 22.756 22.756">
  <defs>
    <linearGradient id="linear-gradient" x1="0.5" x2="0.5" y2="1" gradientUnits="objectBoundingBox">
      <stop offset="0" stop-color="#36aee1"/>
      <stop offset="1" stop-color="#1e96c8"/>
    </linearGradient>
  </defs>
  <g id="SvgjsG1029" transform="translate(-117 -177)">
    <g id="Group_176736" data-name="Group 176736" transform="translate(117 177)">
      <path id="Path_41694" data-name="Path 41694" d="M128.378,177A11.378,11.378,0,1,1,117,188.378,11.38,11.38,0,0,1,128.378,177Z" transform="translate(-117 -177)" fill-rule="evenodd" fill="url(#linear-gradient)"/>
      <path id="Path_41695" data-name="Path 41695" d="M1657.651,1483.073l-1.786,8.416-1.2.218-2.48-1.82-1.288,1.277-1.893-3.248,2.061-3.04L1656.4,1483Z" transform="translate(-1640.422 -1475.687)" fill="#fff" fill-rule="evenodd"/>
      <path id="Path_41696" data-name="Path 41696" d="M1996.119,1849.51a3.336,3.336,0,0,0,.571.42l-.011-.05,3.248-2.021c.067-.045.106-.062.168-.106.426-.28.947-.577,1.366-.857l.51-.319a.638.638,0,0,1,.09-.056c.079-.045.028-.034.118-.051l.062-.286a3.339,3.339,0,0,0,.106-.588c-.022-.05.006-.045-.168.067-.067.045-.129.078-.2.123l-1.187.739c-.739.487-1.607.991-2.357,1.473l-1.187.739-.392.246-.588.364c-.235.14-.185.09-.168.157Z" transform="translate(-1985.565 -1836.222)" fill="#f2f8fb" fill-rule="evenodd"/>
      <path id="Path_41697" data-name="Path 41697" d="M2104,2011.455c.022.056.207.168.269.219.107.073.2.14.292.213.017-.067.005-.039.044-.078l1.266-.79c.05-.033.1-.056.146-.09s.09-.05.146-.09l3.147-1.954.056-.219.078-.369.056-.3c-.1.017-.045.006-.118.05-.044.028-.056.034-.089.056l-.51.319c-.42.28-.941.577-1.366.857-.067.045-.1.062-.168.106L2104,2011.41l.011.05Z" transform="translate(-2092.874 -1997.747)" fill="#f5fafd" fill-rule="evenodd"/>
      <path id="Path_41698" data-name="Path 41698" d="M2493,2624.624c.017.039.078.073.123.106a4.045,4.045,0,0,1,.471.364,3.882,3.882,0,0,1,.5.353c.269.2.342.162.677.174.1-.1.106-.028.235-.219a2.243,2.243,0,0,0,.129-.3l.2-.958.146-.677a2.086,2.086,0,0,0,.067-.4l-.011-.067-1.3.806c-.106.073-.212.129-.324.2l-.8.5C2493.067,2624.534,2493.011,2624.546,2493,2624.624Z" transform="translate(-2479.696 -2609.304)" fill="#fefeff" fill-rule="evenodd"/>
      <path id="Path_41699" data-name="Path 41699" d="M1935.31,1752.092a1.4,1.4,0,0,0,.347.258c-.017-.062-.067-.017.168-.157l.588-.364c.134-.084.252-.157.392-.246l1.187-.739c.75-.482,1.618-.991,2.357-1.473l1.187-.739c.067-.045.129-.078.2-.123.174-.112.146-.112.168-.067.062-.067.062-.241.09-.342a.451.451,0,0,0,.017-.19c-.045-.062.022-.05-.062-.05a2.967,2.967,0,0,1-.414.274l-2.083,1.3c-.706.459-1.5.918-2.2,1.377l-1.77,1.109c-.039.022-.134.062-.151.1s-.078-.05-.006.067Z" transform="translate(-1925.102 -1739.062)" fill="#f0f7fc" fill-rule="evenodd"/>
      <path id="Path_41700" data-name="Path 41700" d="M2369.011,2429.579c0,.005.006.005.006.011.006.033.375.274.431.336.022-.112.034-.073.252-.213.034-.022.067-.039.1-.056l.09-.056.185-.112c.5-.3,1.047-.672,1.551-.969l.549-.341c.168-.106.123-.123.162-.045.051-.062.051-.185.079-.269l.078-.358v-.1c-.056-.067,0-.039-.067-.022l-1.249.784c-.05.033-.078.044-.117.072-.588.364-1.254.8-1.836,1.148a2.1,2.1,0,0,1-.219.128c.022.034,0,.011.005.062Z" transform="translate(-2356.39 -2414.769)" fill="#fbfdfe" fill-rule="evenodd"/>
      <path id="Path_41701" data-name="Path 41701" d="M2131,2714.487l.974.414c.185.078,1.518.688,1.652.683a3.958,3.958,0,0,0-.47-.364c-.044-.034-.112-.067-.123-.106a1.846,1.846,0,0,1-.247-.162c-.062-.062-.426-.3-.431-.336,0-.005-.005-.005-.005-.011a1.162,1.162,0,0,1-.235-.157c-.062-.045-.14-.1-.207-.151a3.2,3.2,0,0,0-.42-.3c-.079.078-.14.134-.235.24-.078.09-.185.146-.246.252Z" transform="translate(-2119.723 -2699.794)" fill="#2199cc" fill-rule="evenodd"/>
      <path id="Path_41702" data-name="Path 41702" d="M2204,2168.007l.067.061a4.954,4.954,0,0,1,.42.3c.067.05.146.112.207.151a.96.96,0,0,0,.235.157c-.005-.051.011-.028-.005-.062a2.015,2.015,0,0,0,.218-.129c.583-.347,1.249-.784,1.837-1.148.045-.028.067-.039.117-.073l1.249-.784c.067-.017.006-.045.067.022l.067-.224a1.92,1.92,0,0,1,.051-.207l.1-.487.117-.582-3.147,1.954c-.056.039-.09.051-.146.09s-.1.056-.146.09l-1.265.789c-.039.039-.028.011-.045.078Z" transform="translate(-2192.314 -2153.869)" fill="#f7fbfd" fill-rule="evenodd"/>
      <path id="Path_41703" data-name="Path 41703" d="M1106.187,1329.588l-.879.342-.711.274-1.209.476-.543.2-1.523.588-.4.151-1.1.426-.7.269-.834.325-.773.3-.487.19-.532.2-.515.2a3.787,3.787,0,0,1-.375.162c-.028.034-.672.4-.078.694.151.073,2.626.857,2.845.9a2.886,2.886,0,0,0,.414-.246l2.049-1.294c1.047-.661,2.262-1.4,3.27-2.066.241-.162.683-.493.885-.347.011.134-.145.224-.257.319l-.963.879c-.056.05-.112.084-.162.134l-.319.3c-.073.062-.1.084-.168.151l-3.22,2.911.034.051.062.011c-.073-.118-.022-.017.006-.067s.112-.078.151-.1l1.769-1.109c.706-.459,1.5-.918,2.2-1.377l2.083-1.3a2.8,2.8,0,0,0,.414-.274c.078,0,.011-.011.062.05.017-.022.005-.006.028-.05l.118-.549.146-.683a1.723,1.723,0,0,0,.067-.655.531.531,0,0,0-.291-.42c-.23-.1-.37-.006-.571.045Z" transform="translate(-1089.792 -1323.053)" fill="#edf5fb" fill-rule="evenodd"/>
      <path id="Path_41704" data-name="Path 41704" d="M1649,1651.537l.219.717.229.761.207.677.2.655c.028.045.1.313.123.381.05.168.067.291.24.286l.123-.011.229-2.682c-.011-.017-.017-.039-.033-.05l3.22-2.912a2,2,0,0,1,.168-.151l.319-.3c.05-.05.106-.084.162-.134l.963-.879c.112-.1.269-.19.258-.319-.207-.146-.644.185-.885.347-1.008.666-2.223,1.405-3.27,2.066l-2.049,1.293a2.9,2.9,0,0,1-.414.246Z" transform="translate(-1640.422 -1639.308)" fill="#c8daea" fill-rule="evenodd"/>
      <path id="Path_41705" data-name="Path 41705" d="M1867,2504.693v.017a.71.71,0,0,0,.409-.062c.179-.089.168-.162.269-.19a2.824,2.824,0,0,1,.392-.386,1.977,1.977,0,0,1,.3-.308l.112-.09c.056-.106.162-.162.246-.251.1-.106.157-.163.235-.241l-.067-.062c-.1-.079-.19-.141-.291-.213a1.07,1.07,0,0,1-.269-.218,3.637,3.637,0,0,1-.571-.42,1.511,1.511,0,0,1-.347-.257l-.062-.011-.23,2.682-.123.011Z" transform="translate(-1857.201 -2488.982)" fill="#a9c9dd" fill-rule="evenodd"/>
      <path id="Path_41706" data-name="Path 41706" d="M2449,2554.822a1.181,1.181,0,0,0,.246.162c.011-.078.067-.09.118-.117l.8-.5c.112-.073.218-.135.324-.2l1.3-.806.011.067c.039-.045.028-.078.051-.14l.033-.263c-.039-.078.006-.067-.162.045l-.549.342c-.5.3-1.047.667-1.551.969l-.185.112-.09.056c-.028.017-.062.034-.1.056-.218.14-.235.1-.252.213Z" transform="translate(-2435.942 -2539.67)" fill="#fcfdfe" fill-rule="evenodd"/>
    </g>
  </g>
</svg>
