<svg xmlns="http://www.w3.org/2000/svg" width="34.257" height="29.975" viewBox="0 0 34.257 29.975">
  <path id="th-list-solid" d="M9.992,44.311v5.353A1.606,1.606,0,0,1,8.386,51.27H1.606A1.606,1.606,0,0,1,0,49.664V44.311a1.606,1.606,0,0,1,1.606-1.606h6.78A1.606,1.606,0,0,1,9.992,44.311ZM0,55.016v5.353a1.606,1.606,0,0,0,1.606,1.606h6.78a1.606,1.606,0,0,0,1.606-1.606V55.016a1.606,1.606,0,0,0-1.606-1.606H1.606A1.606,1.606,0,0,0,0,55.016ZM8.386,32H1.606A1.606,1.606,0,0,0,0,33.606v5.353a1.606,1.606,0,0,0,1.606,1.606h6.78a1.606,1.606,0,0,0,1.606-1.606V33.606A1.606,1.606,0,0,0,8.386,32Zm5.353,29.975H32.651a1.606,1.606,0,0,0,1.606-1.606V55.016a1.606,1.606,0,0,0-1.606-1.606H13.738a1.606,1.606,0,0,0-1.606,1.606v5.353a1.606,1.606,0,0,0,1.606,1.606ZM12.133,33.606v5.353a1.606,1.606,0,0,0,1.606,1.606H32.651a1.606,1.606,0,0,0,1.606-1.606V33.606A1.606,1.606,0,0,0,32.651,32H13.738a1.606,1.606,0,0,0-1.606,1.606ZM13.738,51.27H32.651a1.606,1.606,0,0,0,1.606-1.606V44.311a1.606,1.606,0,0,0-1.606-1.606H13.738a1.606,1.606,0,0,0-1.606,1.606v5.353a1.606,1.606,0,0,0,1.606,1.606Z" transform="translate(0 -32)" fill="#535353"/>
</svg>
