<svg xmlns="http://www.w3.org/2000/svg" width="34.257" height="29.975" viewBox="0 0 34.257 29.975">
  <path id="th-large-solid" d="M19.8,32H32.651a1.606,1.606,0,0,1,1.606,1.606V44.311a1.606,1.606,0,0,1-1.606,1.606H19.8A1.606,1.606,0,0,1,18.2,44.311V33.606A1.606,1.606,0,0,1,19.8,32Zm-5.353,0H1.606A1.606,1.606,0,0,0,0,33.606V44.311a1.606,1.606,0,0,0,1.606,1.606H14.452a1.606,1.606,0,0,0,1.606-1.606V33.606A1.606,1.606,0,0,0,14.452,32ZM0,49.664V60.369a1.606,1.606,0,0,0,1.606,1.606H14.452a1.606,1.606,0,0,0,1.606-1.606V49.664a1.606,1.606,0,0,0-1.606-1.606H1.606A1.606,1.606,0,0,0,0,49.664ZM19.8,61.975H32.651a1.606,1.606,0,0,0,1.606-1.606V49.664a1.606,1.606,0,0,0-1.606-1.606H19.8A1.606,1.606,0,0,0,18.2,49.664V60.369A1.606,1.606,0,0,0,19.8,61.975Z" transform="translate(0 -32)" fill="#535353"/>
</svg>
