<svg id="SvgjsG1026" xmlns="http://www.w3.org/2000/svg" xmlns:xlink="http://www.w3.org/1999/xlink" width="24" height="24" viewBox="0 0 24 24">
  <defs>
    <radialGradient id="radial-gradient" cx="0.562" cy="-0.448" r="0.883" gradientUnits="objectBoundingBox">
      <stop offset="0" stop-color="#1f1f1f"/>
      <stop offset="0.44" stop-color="#232222"/>
      <stop offset="0.82" stop-color="#2d2b2b"/>
      <stop offset="1" stop-color="#353132"/>
    </radialGradient>
    <linearGradient id="linear-gradient" x1="0.5" y1="0.998" x2="0.5" gradientUnits="objectBoundingBox">
      <stop offset="0" stop-color="#d1d3d4"/>
      <stop offset="0.15" stop-color="#dee0e1"/>
      <stop offset="0.41" stop-color="#f1f1f2"/>
      <stop offset="0.69" stop-color="#fbfcfc"/>
      <stop offset="1" stop-color="#fff"/>
    </linearGradient>
  </defs>
  <g id="Layer_1" data-name="Layer 1">
    <rect id="Rectangle_162517" data-name="Rectangle 162517" width="24" height="24" rx="12" fill="url(#radial-gradient)"/>
    <path id="Path_41683" data-name="Path 41683" d="M21.047,21.193a5.866,5.866,0,0,0-.957.054,1.856,1.856,0,0,0-1.426,2.1,1.875,1.875,0,0,0,2,1.6A1.856,1.856,0,0,0,22.4,23.1V14.25h2.22a3.142,3.142,0,0,0,3.061,3.1v2.174a5.332,5.332,0,0,1-3.026-.988v4.437a4.057,4.057,0,0,1-2.72,3.968,3.875,3.875,0,0,1-4.367-1.015,3.875,3.875,0,0,1-.845-4.363A4.076,4.076,0,0,1,20.981,19l.081.019Z" transform="translate(-10.035 -8.729)" fill="url(#linear-gradient)"/>
  </g>
</svg>
