<svg xmlns="http://www.w3.org/2000/svg" width="23.428" height="23.428" viewBox="0 0 23.428 23.428">
  <path id="Path_41770" data-name="Path 41770" d="M11.717,0h-.006A11.707,11.707,0,0,0,2.23,18.58L.77,22.932l4.5-1.439A11.712,11.712,0,1,0,11.717,0Zm6.816,16.542a3.305,3.305,0,0,1-2.3,1.653c-.612.13-1.412.234-4.1-.881A14.674,14.674,0,0,1,6.3,12.162,6.69,6.69,0,0,1,4.908,8.629a3.74,3.74,0,0,1,1.2-2.851,1.7,1.7,0,0,1,1.2-.42c.145,0,.275.007.392.013.344.015.517.035.744.578.283.681.971,2.362,1.053,2.535a.7.7,0,0,1,.05.634,2.024,2.024,0,0,1-.379.537c-.173.2-.337.351-.51.565-.158.186-.337.385-.138.729a10.4,10.4,0,0,0,1.9,2.362,8.612,8.612,0,0,0,2.747,1.694.741.741,0,0,0,.826-.13,14.173,14.173,0,0,0,.915-1.212.654.654,0,0,1,.84-.255c.316.11,1.99.937,2.334,1.108s.571.255.655.4A2.917,2.917,0,0,1,18.533,16.542Z" fill="#0dc143"/>
</svg>
