<svg id="SvgjsG1013" xmlns="http://www.w3.org/2000/svg" width="28.111" height="19.912" viewBox="0 0 28.111 19.912">
  <g id="Group_176590" data-name="Group 176590">
    <path id="Path_41682" data-name="Path 41682" d="M11.153,13.628V5.674l7.6,3.991ZM27.83,4.3a6.161,6.161,0,0,0-1.117-2.81A4,4,0,0,0,23.9.286C19.962,0,14.062,0,14.062,0h-.013s-5.9,0-9.834.287A4,4,0,0,0,1.4,1.485,6.148,6.148,0,0,0,.281,4.3,43.134,43.134,0,0,0,0,8.877v2.148a43.1,43.1,0,0,0,.281,4.581A6.148,6.148,0,0,0,1.4,18.417a4.745,4.745,0,0,0,3.1,1.211c2.249.217,9.558.285,9.558.285s5.907-.009,9.841-.3a4.005,4.005,0,0,0,2.816-1.2,6.152,6.152,0,0,0,1.117-2.81,43.087,43.087,0,0,0,.281-4.582V8.877A43.134,43.134,0,0,0,27.83,4.3Z" fill="#ce1312" fill-rule="evenodd"/>
  </g>
</svg>
